<?xml version="1.0" standalone="no"?>
<!DOCTYPE svg PUBLIC "-//W3C//DTD SVG 1.1//EN" "http://www.w3.org/Graphics/SVG/1.1/DTD/svg11.dtd" >
<!--
2013-9-30: Created.
-->
<svg>
<metadata>
Created by iconfont
</metadata>
<defs>

<font id="iconfont" horiz-adv-x="1024" >
  <font-face
    font-family="iconfont"
    font-weight="500"
    font-stretch="normal"
    units-per-em="1024"
    ascent="896"
    descent="-128"
  />
    <missing-glyph />
    
    <glyph glyph-name="huancun" unicode="&#58900;" d="M96.32-112.096l832.32 0 0-55.488-832.32 0 0 55.488ZM873.216 361.312 686.464 361.312 686.464 775.776 338.496 775.776 338.496 361.312 151.808 361.312 512.448-56.8Z"  horiz-adv-x="1024" />

    
    <glyph glyph-name="gio" unicode="&#59591;" d="M704.214 732.477c-16.235 8.139-35.814 1.203-43.72-15.49-7.91-16.69-1.163-36.8 15.075-44.939 130.26-65.224 213.143-199.016 213.143-348.454 0-213.6-169.278-387.378-377.342-387.378-208.067 0-377.343 173.777-377.343 387.378 0 149.214 82.71 282.912 212.683 348.23 16.227 8.15 22.947 28.272 15.012 44.953-7.937 16.672-27.516 23.575-43.74 15.421C165.385 655.517 70.59 499.496 70.59 325.01599999999996c0-249.796 197.733-453.012 440.779-453.012S952.148 75.22000000000003 952.148 325.01599999999996c0 174.747-95.002 330.876-247.934 407.461zM511.378 671.79c17.389 0 31.486 14.333 31.486 31.995V863.75c0 17.673-14.096 31.994-31.486 31.994s-31.486-14.32-31.486-31.994v-159.966c0-17.662 14.096-31.995 31.486-31.995z m-32.03-521.733v-39.287c0-9.071 2.827-14.617 13.653-14.617h36.718c10.832 0 13.653 5.546 13.653 14.617v38.288c55.544 8.574 93.676 42.812 93.676 103.298 0 68.514-49.897 83.125-83.79 94.23-18.831 8.042-88.028 19.13-88.028 49.856 0 22.685 25.89 29.23 41.427 29.23 14.12 0 31.068-4.537 40.011-13.606 5.651-5.545 8.003-9.564 9.886-15.103 2.354-6.571 3.762-13.621 12.708-13.621h46.131c10.832 0 13.656 2.019 13.656 14.12 0 51.895-40.014 81.114-85.676 91.189v40.316c0 9.054-2.82 14.603-13.652 14.603h-36.719c-10.826 0-13.653-5.549-13.652-14.603v-38.791c-48.952-9.58-89.908-40.819-89.908-97.259 0-63.995 43.78-84.138 91.324-100.267 40.01-13.602 81.908-14.096 81.908-42.31 0-28.215-20.714-34.269-46.132-34.269-17.42 0-36.718 4.544-46.136 16.63-6.117 7.559-8.474 14.113-8.94 20.66-0.942 12.588-6.123 14.11-16.95 14.11h-45.665c-10.823 0-13.643-2.531-13.643-14.11-0.001-57.433 45.189-92.217 94.14-103.304z"  horiz-adv-x="1024" />

    
    <glyph glyph-name="fenxiang" unicode="&#59029;" d="M699.392 297.472c-36.352 0-66.048-19.456-79.872-49.664L443.904 322.56c10.24 15.872 15.872 35.328 15.872 56.32 0 8.704-1.024 17.408-3.072 25.6l112.128 87.04c14.848-11.264 33.792-17.92 54.784-17.92 50.688 0 88.576 37.888 88.576 88.064s-37.888 88.064-88.576 88.064-88.064-37.888-88.064-88.064c0-12.8 2.56-24.576 6.656-34.816l-103.424-79.36c-20.48 30.72-54.272 52.224-92.672 52.224-62.976 0-113.664-50.688-113.664-113.664s50.688-113.664 113.664-113.664c23.552 0 45.568 6.144 63.488 17.408l201.728-86.016c2.56-47.616 39.424-82.944 88.064-82.944 50.688 0 88.064 37.888 88.064 88.064s-37.888 88.576-88.064 88.576z m-75.776 315.392c25.088 0 50.688-18.944 50.688-50.688s-18.944-50.688-50.688-50.688-50.688 25.088-50.688 50.688 25.6 50.688 50.688 50.688zM346.112 310.272c-37.888 0-69.632 31.744-69.632 69.632s31.744 69.632 69.632 69.632 69.632-31.744 69.632-69.632c-0.512-37.888-31.744-69.632-69.632-69.632z m353.28-151.552c-31.744 0-50.688 18.944-50.688 50.688s25.088 50.688 50.688 50.688 50.688-18.944 50.688-50.688c-0.512-31.744-19.456-50.688-50.688-50.688zM509.952-74.752c-61.952 0-122.368 12.288-179.2 36.352-54.784 23.04-103.936 56.32-146.432 98.816s-75.776 91.648-98.816 146.432c-24.064 56.832-36.352 117.248-36.352 179.2s12.288 122.368 36.352 179.2c23.04 54.784 56.32 103.936 98.816 146.432s91.648 75.776 146.432 98.816C387.584 834.56 448 846.848 509.952 846.848s122.368-12.288 179.2-36.352c54.784-23.04 103.936-56.32 146.432-98.816s75.776-91.648 98.816-146.432c24.064-56.832 36.352-117.248 36.352-179.2s-12.288-122.368-36.352-179.2c-23.04-54.784-56.32-103.936-98.816-146.432S743.936-15.36 689.152-38.4c-56.832-24.064-117.248-36.352-179.2-36.352z m0 875.52c-228.864 0-414.72-185.856-414.72-414.72s185.856-414.72 414.72-414.72 414.72 185.856 414.72 414.72-185.856 414.72-414.72 414.72z"  horiz-adv-x="1024" />

    
    <glyph glyph-name="xiaoheiwu" unicode="&#58890;" d="M942.1 462.2l-113.5 104.5c0.5 3.2 0 6.5 0 9.9v144.8c0 33.3-25.9 60.3-57.9 60.3s-57.9-27-57.9-60.3v-49.6l-149.3 136.5c-29.7 31-77.9 31-107.7 0l-373.9-336.5c-29.7-31-29.7-76.4 0-107.4l102.7-42.4v-308.3c0-42.7 33.2-77.2 74.1-77.2h500.3c40.9 0 74.1 34.6 74.1 77.2v297.6l108.9 43.5c29.8 31 29.8 76.4 0.1 107.4zM647.2 444.7c25.8 0 46.7-21.5 46.7-48s-20.9-48-46.7-48-46.7 21.5-46.7 48c-0.1 26.5 20.9 48 46.7 48zM376.8 444.7c25.8 0 46.7-21.5 46.7-48s-20.9-48-46.7-48c-25.8 0-46.8 21.5-46.8 48 0.1 26.5 21 48 46.8 48zM731.4 56c-5.7-4.5-12.4-6.7-19-6.7-9.6-0.2-19.2 4.2-25.6 12.7-42.2 56.5-106.1 88.8-175.3 88.9-68.5 0-132-31.9-174.2-87.4-6.4-8.4-16-12.7-25.6-12.5-6.7 0.1-13.4 2.4-19 6.9-13.8 11-16.2 31.4-5.4 45.6 54.3 71.3 136 125 224.1 125h0.2c89 0 171.3-54.3 225.6-127 10.7-14.1 8-34.5-5.8-45.5z"  horiz-adv-x="1024" />

    
    <glyph glyph-name="dianshiji" unicode="&#58887;" d="M880 731.5H144a43.55 43.55 0 0 1-43.5-43.5v-480a43.55 43.55 0 0 1 43.5-43.5h340.5v-73H320a27.5 27.5 0 0 1 0-55h384a27.5 27.5 0 0 1 0 55H539.5v73H880a43.55 43.55 0 0 1 43.5 43.5V688a43.55 43.55 0 0 1-43.5 43.5z m-11.5-512h-713v457h713zM704 256h96.2a27.5 27.5 0 0 1 0 55H704a27.5 27.5 0 0 1 0-55z"  horiz-adv-x="1024" />

    
    <glyph glyph-name="taiyang" unicode="&#58888;" d="M871.266462 540.750769V748.898462h-216.064L508.022154 896 355.288615 743.345231H147.101538v-216.103385L0 379.98276899999996l152.733538-152.733538v-208.147693h216.064L515.977846-128l152.812308 152.772923h208.108308v216.024615L1024 388.017231 871.266462 540.750769zM512 87.35507700000005a296.723692 296.723692 0 1 0-0.039385 593.447385A296.723692 296.723692 0 0 0 512 87.35507700000005zM707.347692 379.15569200000004a196.923077 196.923077 0 1 0-393.924923-0.118154 196.923077 196.923077 0 0 0 393.885539 0.118154"  horiz-adv-x="1024" />

    
    <glyph glyph-name="shangcheng" unicode="&#58896;" d="M915.1 693.9C915.1 770.2 855 832 780.8 832H243.2c-74.2 0-134.4-61.8-134.4-138.1L64 74.10000000000002C64-2.2000000000000455 124.1-64 198.4-64h627.2c74.2 0 134.4 61.8 134.4 138.1-9.8 134.7-17.1 235.6-21.9 303-5.1 70.4-12.8 176-23 316.8zM792 663.3c0-59.6-26.2-115.7-73.8-157.9C670.6 463.2 607.3 440 540 440s-130.6 23.2-178.2 65.4c-47.6 42.2-73.8 98.3-73.8 157.9v0.6l61.9-0.1v-0.7c0.1-92.8 85.3-168.2 190.1-168.2s189.9 75.5 190 168.2v0.6l62 0.2v-0.6z"  horiz-adv-x="1024" />

    
    <glyph glyph-name="paihang" unicode="&#58889;" d="M61.113 542.906h288.486V-56H61.113zM364.121 824.892h288.485V-56H364.121zM669.515 343.41600000000005H958V-56H669.515z"  horiz-adv-x="1024" />

    
    <glyph glyph-name="iconhuojiangjilu" unicode="&#58884;" d="M577.724399 441.928341c278.186813 536.616654-487.890906 498.411517-112.219851-4.930289C37.052382 933.114293-161.359526 140.345678 444.68129 339.677539c-25.00551-13.269211-57.722656-29.288047-76.014254-42.989093-448.435289-279.105742 202.742541-641.327484 160.195515-9.792017 2.13564-11.520381 2.477424-11.882632 5.021364-22.357194 112.844068-587.274404 659.559731-85.818551 118.943996 76.024487-10.916631 4.13518-31.706119 8.634658-44.066635 12.338003C1199.385984 279.4222 931.562193 907.394515 577.724399 441.928341zM521.796622 286.82889c-47.862078 1.499144-85.46551 41.533952-83.95511 89.384773 1.567705 47.855938 41.568744 85.460394 89.420589 83.914178 47.861054-1.476631 85.420485-41.511439 83.941807-89.390913C609.648482 322.887131 569.648466 285.328723 521.796622 286.82889z"  horiz-adv-x="1024" />

    
    <glyph glyph-name="xunzhang" unicode="&#59286;" d="M345.6 236.8l-22.4-211.2 169.6 96c9.6 6.4 22.4 6.4 32 0l169.6-96-22.4 211.2c-48-28.8-105.6-44.8-166.4-44.8s-108.8 16-160 44.8z m-57.6 48c-57.6 57.6-96 137.6-96 227.2 0 176 144 320 320 320s320-144 320-320c0-89.6-35.2-169.6-96-227.2l32-313.6c3.2-25.6-25.6-44.8-48-32l-208 118.4-208-118.4c-22.4-12.8-51.2 6.4-48 32l32 313.6z m224-28.8c140.8 0 256 115.2 256 256s-115.2 256-256 256-256-115.2-256-256 115.2-256 256-256z"  horiz-adv-x="1024" />

    
    <glyph glyph-name="medal" unicode="&#58885;" d="M512 495.816092m-338.97931 0a338.97931 338.97931 0 1 1 677.95862 0 338.97931 338.97931 0 1 1-677.95862 0ZM293.075862 375.76092000000006v-401.36092c0-31.77931 34.133333-51.788506 61.204598-36.487356l156.542529 85.921839 157.71954-85.921839c28.248276-15.301149 61.204598 4.708046 61.204597 36.487356V375.76092000000006H293.075862z"  horiz-adv-x="1024" />

    
    <glyph glyph-name="zuanshi" unicode="&#58962;" d="M1165.639073 517.702376a18.578206 18.578206 0 0 1-0.438855 25.30732L853.83241 880.196822a21.57705 21.57705 0 0 1-6.143974 4.681123 22.308476 22.308476 0 0 1-19.748487 11.117666H343.516883a22.601046 22.601046 0 0 1-19.382775-10.532526 21.211338 21.211338 0 0 1-7.460539-5.19312L5.305761 543.082838a18.797634 18.797634 0 0 1-5.119978-14.921079 18.724491 18.724491 0 0 1 5.119978-14.921079l566.19643-613.227086c7.826252-8.484535 21.650193-9.508531 31.012439-2.413704 4.095982 3.145129 6.582829 7.314254 7.533682 11.702807a18.651349 18.651349 0 0 1 1.462851 1.389709l548.861647 594.429452a19.236489 19.236489 0 0 1 5.266263 12.580518z m-568.902704-378.293236l303.541556 328.775733a35.400991 35.400991 0 0 0 46.5918 3.583985 28.086737 28.086737 0 0 0 4.169125-42.27639l-326.6546-353.790484a34.523281 34.523281 0 0 0-27.647881-10.605669 34.450138 34.450138 0 0 0-27.647882 10.605669L242.433887 429.492468A28.086737 28.086737 0 0 0 246.603012 471.768858a35.400991 35.400991 0 0 0 46.518658-3.657127l303.541556-328.702591z"  horiz-adv-x="1170" />

    
    <glyph glyph-name="hanghai" unicode="&#58956;" d="M511.1 583l-4.2-29.9-106.5 3.7c176.2-65 320.4-153.1 515-170.4v12.1l-83.9 19.9-32 62.9-16.8 65 0.5 28.8L562 692.6c-105.9 21-167.3 21.5-273.2 1l-26.2-94.4c17.3-4.2 34.1-8.9 50.9-13.6l197.6-2.6z m102.3-65l-67.6 29.4-1.1 34.6 68.7-34.1V518z m89.2 58.2l58.2-30.9v-22l-58.2 28.3v24.6z m-0.6-72.4l78.7-30.9v-22.6L702 479.2v24.6z m-65.5 104.9l48.3-23.6v-26.2l-48.3 21v28.8z m0-72.3l48.3-23.6v-25.7l-48.3 21v28.3z m-23.1 83.9v-30.4l-69.2 30.4-1.1 34.6 70.3-34.6z m-315.7 38.3l225.5-3.1-4.7-30.4-225.5 8.3 4.7 25.2zM198.2 182.4c42.8 0 65.9-13.2 85.7-23.1 19.8-9.9 39.5-19.8 75.8-19.8 36.2 0 56 9.9 75.8 19.8 23.1 9.9 49.4 23.1 98.8 23.1s75.8-13.2 98.8-23.1c19.8-9.9 39.5-19.8 75.8-19.8 36.2 0 56 9.9 75.8 19.8 23.1 9.9 46.1 19.8 85.7 23.1 6.6 0 16.5-3.3 19.8-6.6 2.6-1.3 4.7-3.1 6.3-5.3 31.8 65.6 62.9 139.4 63.8 191.2-168.9-2.1-362.4 76.6-529.2 139-166.8 62.4-306.3 108-365.5 39.3-15.5-160.8 98.7-181.2 132-357.7 0 0 0.3 0.1 0.6 0.1zM890.3 144.9c-3.3 3.3-13.2 6.6-19.8 6.6-39.5-3.3-62.6-13.2-85.7-23.1-19.8-9.9-39.5-19.8-75.8-19.8-36.2 0-56 9.9-75.8 19.8-23.1 9.9-49.4 23.1-98.8 23.1s-75.8-13.2-98.8-23.1c-19.8-9.9-39.5-19.8-75.8-19.8-36.2 0-56 9.9-75.8 19.8-19.8 9.9-42.8 23.1-85.7 23.1-6.6 0-13.2-3.3-19.8-6.6 0-3.3-3.3-9.9-3.3-16.5 0-13.2 9.9-23.1 23.1-26.4 29.6 0 46.1-9.9 65.9-19.8 23.1-9.9 49.4-23.1 98.8-23.1s75.8 13.2 98.8 23.1c19.8 9.9 39.5 19.8 75.8 19.8 36.2 0 56-9.9 75.8-19.8 23.1-9.9 49.4-23.1 98.8-23.1s75.8 13.2 98.8 23.1c19.8 9.9 36.2 16.5 65.9 19.8 13.2 0 23.1 13.2 23.1 26.4 0.2 6.7-3.1 13.3-9.7 16.5z m0 0"  horiz-adv-x="1024" />

    
    <glyph glyph-name="dan" unicode="&#58905;" d="M994.809103 259.540114C994.809103-24.502857 817.935045-84.114286 599.706017-84.114286s-394.971429 59.611429-394.971429 343.6544S381.56476 852.114286 599.706017 852.114286 994.809103 543.597714 994.809103 259.540114zM460.734588-128c-185.2416 0-431.542857 40.082286-431.542857 386.618514C29.191731 559.542857 213.716531 896 460.734588 896s431.542857-336.457143 431.542857-637.366857C892.175045-87.917714 645.917674-128 460.734588-128z m0 943.118629c-85.884343 0-174.299429-62.7712-242.600228-172.222172A755.6096 755.6096 0 0 1 109.648874 258.633143c0-217.161143 101.712457-305.737143 351.085714-305.737143s351.085714 88.576 351.085715 305.737143a755.594971 755.594971 0 0 1-108.456229 384.277943C634.990131 752.347429 546.560417 815.118629 460.734588 815.118629z"  horiz-adv-x="1024" />

    
    <glyph glyph-name="wodeguanzhu" unicode="&#59067;" d="M512 802.909091C281.6 802.909091 93.090909 614.4 93.090909 384s188.509091-418.909091 418.909091-418.909091 418.909091 188.509091 418.909091 418.909091S742.4 802.909091 512 802.909091z m0-728.436364c-172.218182 0-309.527273 139.636364-309.527273 309.527273S339.781818 693.527273 512 693.527273s309.527273-139.636364 309.527273-309.527273S684.218182 74.47272699999996 512 74.47272699999996zM512 602.763636c-121.018182 0-218.763636-97.745455-218.763636-218.763636s97.745455-218.763636 218.763636-218.763636 218.763636 97.745455 218.763636 218.763636-97.745455 218.763636-218.763636 218.763636zM458.472727 384c-37.236364 0-69.818182 30.254545-69.818182 69.818182 0 37.236364 30.254545 69.818182 69.818182 69.818182 37.236364 0 69.818182-30.254545 69.818182-69.818182-2.327273-39.563636-32.581818-69.818182-69.818182-69.818182z"  horiz-adv-x="1024" />

    
    <glyph glyph-name="mianliuliangfuwu" unicode="&#59069;" d="M388.654545 425.890909h246.69091v-246.690909H388.654545zM807.563636 626.036364L656.290909 756.363636c-16.290909 13.963636-39.563636 23.272727-62.836364 23.272728H279.272727C225.745455 779.636364 183.854545 737.745455 183.854545 684.2181820000001V81.45454500000005c0-51.2 41.890909-95.418182 95.418182-95.418181h465.454546c51.2 0 95.418182 41.890909 95.418182 95.418181V553.890909c0 27.927273-11.636364 53.527273-32.581819 72.145455z m-79.127272-463.127273c0-41.890909-34.909091-76.8-76.8-76.8H372.363636c-41.890909 0-76.8 34.909091-76.8 76.8V444.509091c0 41.890909 34.909091 76.8 76.8 76.8h279.272728c41.890909 0 76.8-34.909091 76.8-76.8v-281.6z"  horiz-adv-x="1024" />

    
    <glyph glyph-name="shaohouzaikan" unicode="&#59072;" d="M774.981818 325.818182c23.272727 0 39.563636-2.327273 60.509091-9.309091V609.745455C835.490909 691.2 768 756.363636 686.545455 756.363636h-418.909091C183.854545 756.363636 116.363636 691.2 116.363636 609.745455v-418.909091c0-81.454545 67.490909-146.618182 148.945455-146.618182H558.545455c-6.981818 18.618182-9.309091 39.563636-9.309091 60.509091 0 118.690909 102.4 221.090909 225.745454 221.090909m-367.709091-90.763637c-11.636364 0-23.272727 11.636364-23.272727 20.945455V542.254545c0 11.636364 11.636364 20.945455 23.272727 20.945455 6.981818 0 9.309091-2.327273 13.963637-6.981818l193.163636-139.636364c6.981818-4.654545 9.309091-11.636364 9.309091-18.618182 0-9.309091-4.654545-13.963636-9.309091-18.618181l-193.163636-139.636364c-2.327273-2.327273-9.309091-4.654545-13.963637-4.654546m367.709091 44.218182c-97.745455 0-179.2-79.127273-179.2-179.2 0-97.745455 79.127273-179.2 179.2-179.2 97.745455 0 179.2 79.127273 179.2 179.2s-79.127273 179.2-179.2 179.2m86.109091-225.745454c-9.309091-13.963636-25.6-18.618182-39.563636-9.309091l-58.181818 30.254545h-2.327273c-2.327273 0-2.327273 2.327273-4.654546 2.327273l-2.327272 2.327273-2.327273 2.327272c0 2.327273-2.327273 2.327273-2.327273 4.654546-4.654545 4.654545-4.654545 9.309091-4.654545 11.636364v60.50909c0 16.290909 11.636364 30.254545 30.254545 30.254546 16.290909 0 30.254545-11.636364 30.254546-30.254546v-41.890909l46.545454-20.945454c11.636364-6.981818 16.290909-25.6 9.309091-41.890909"  horiz-adv-x="1024" />

    
    <glyph glyph-name="zhuti" unicode="&#59010;" d="M419.182 749.737h-254.38c-12.108 0-21.924-9.815-21.924-21.923v-254.382c0-36.577 29.759-66.333 66.335-66.333h254.38c12.108 0 21.923 9.815 21.923 21.923V683.404c0 36.576-29.757 66.333-66.334 66.333z m22.488-298.793H209.213c-12.4 0-22.488 10.088-22.488 22.487V705.89h232.46c12.397 0 22.486-10.088 22.486-22.487v-232.46zM855.797 671.072c-12.108 0-21.922-9.815-21.922-21.923v-175.717c0-12.4-10.09-22.487-22.49-22.487H578.928V683.403c0 12.399 10.087 22.487 22.488 22.487h174.346c12.108 0 21.922 9.815 21.922 21.923 0 12.108-9.815 21.923-21.922 21.923H601.415c-36.577 0-66.333-29.757-66.333-66.334V429.02c0-12.108 9.815-21.923 21.922-21.923h254.38c36.579 0 66.335 29.757 66.335 66.333V649.148c0 12.11-9.814 21.924-21.922 21.924zM811.033 357.497H556.651c-12.108 0-21.922-9.815-21.922-21.923v-254.382c0-36.576 29.757-66.333 66.335-66.333h254.38c12.108 0 21.923 9.815 21.923 21.923V291.164c0 36.576-29.757 66.333-66.334 66.333z m22.487-298.791H601.064c-12.4 0-22.49 10.088-22.49 22.486V313.651h232.46c12.398 0 22.485-10.088 22.485-22.487v-232.458zM463.593 357.497h-254.38c-36.577 0-66.335-29.757-66.335-66.334v-254.381c0-12.109 9.817-21.923 21.924-21.923h254.382c36.575 0 66.332 29.757 66.332 66.333V335.574c0 12.108-9.815 21.923-21.923 21.923zM441.67 81.192c0-12.4-10.089-22.486-22.486-22.486h-232.46V291.164c0 12.399 10.089 22.487 22.488 22.487H441.67v-232.459zM855.797 702.487c13.965 0 25.326 11.361 25.326 25.327 0 13.965-11.361 25.327-25.326 25.327s-25.328-11.362-25.328-25.327c0-13.965 11.363-25.327 25.328-25.327z"  horiz-adv-x="1025" />

    
    <glyph glyph-name="youxi1" unicode="&#59078;" d="M626.1 633.6h-79.9v79.9c0 22.1-17.9 40-40 40s-40-17.9-40-40v-79.9h-79.9c-165.7 0-300-134.3-300-300s134.3-300 300-300h240c165.7 0 300 134.3 300 300s-134.6 300-300.2 300z m-210-320h-50v-50c0-16.5-13.4-30-30-30-16.5 0-30 13.4-30 30v50h-50c-16.5 0-30 13.4-30 30 0 16.5 13.4 30 30 30h50v50c0 16.5 13.4 30 30 30 16.5 0 30-13.4 30-30v-50h50c16.5 0 30-13.4 30-30-0.1-16.6-13.5-30-30-30z m220 40c-27.7 0-50 22.3-50 50s22.3 50 50 50 50-22.3 50-50c0-27.6-22.4-50-50-50z m100-119.9c-27.7 0-50 22.3-50 50s22.3 50 50 50 50-22.3 50-50-22.4-50-50-50z"  horiz-adv-x="1024" />

    
    <glyph glyph-name="-weiguanzhurenxinxisixinxiaoxizhongxin" unicode="&#58883;" d="M771.584 60.416H250.368c-62.976 0-114.176 51.2-114.176 114.176V565.76c0 62.976 51.2 114.176 114.176 114.176h521.216c62.976 0 114.176-51.2 114.176-114.176v-391.168c0-62.976-51.2-114.176-114.176-114.176zM250.368 613.376c-26.112 0-47.616-21.504-47.616-47.616v-391.168c0-26.112 21.504-47.616 47.616-47.616h521.216c26.112 0 47.616 21.504 47.616 47.616V565.76c0 26.112-21.504 47.616-47.616 47.616H250.368zM510.976 355.328c-26.624 0-53.248 8.704-74.752 26.112L163.84 602.112l41.984 51.712 272.384-220.16c18.944-15.36 47.104-15.36 66.048 0l272.384 220.16 41.984-51.712-272.384-220.16c-22.016-17.92-48.64-26.624-75.264-26.624z"  horiz-adv-x="1024" />

    
    <glyph glyph-name="lishijilu" unicode="&#59203;" d="M880.2 539.2c21.1-49.3 31.8-101 31.8-155.2 0-54.1-10.6-105.9-31.8-155.2-21.1-49.3-49.6-91.8-85.4-127.6s-78.3-64.2-127.6-85.4C617.9-5.3 566.2-16 512-16c-59.7 0-116.4 12.6-170.3 37.8-53.7 25.2-99.6 60.7-137.4 106.5-2.4 3.5-3.6 7.3-3.4 11.7s1.6 7.9 4.4 10.6l71.3 71.8c3.5 3.2 7.8 4.7 13 4.7 5.6-0.7 9.5-2.7 11.9-6.2 25.3-33 56.4-58.5 93.2-76.6s75.9-27 117.2-27c36.1 0 70.5 7 103.4 21.1 32.9 14 61.2 33.1 85.1 57.1 24 24 42.9 52.3 57.1 85.1 14 32.9 21.1 67.2 21.1 103.4s-7 70.5-21.1 103.4-33.1 61.2-57.1 85.1c-24 24-52.3 42.9-85.1 57.1-32.9 14-67.2 21.1-103.4 21.1-34.1 0-66.7-6.1-97.9-18.5-31.2-12.4-59-29.9-83.3-52.9l71.3-71.8c10.7-10.4 13.1-22.3 7.3-35.9-5.9-13.9-16.1-20.8-30.8-20.8H145.3c-9 0-16.9 3.3-23.4 9.9-6.6 6.6-9.9 14.3-9.9 23.4V717.3c0 14.6 6.9 24.9 20.8 30.8 13.6 5.9 25.5 3.5 35.9-7.3l67.7-67.1c37.1 35 79.6 62.2 127.4 81.5 47.7 19.3 97.1 28.9 148.2 28.9 54.1 0 105.9-10.6 155.2-31.8s91.8-49.6 127.6-85.4c35.7-35.8 64.2-78.3 85.4-127.7zM578.7 534v-233.3c0-4.8-1.5-8.9-4.7-11.9-3.2-3.2-7.1-4.7-11.9-4.7H395.4c-4.8 0-8.9 1.5-11.9 4.7-3.2 3.2-4.7 7.1-4.7 11.9V334c0 4.8 1.5 8.9 4.7 11.9 3.2 3.2 7.1 4.7 11.9 4.7H512V534c0 4.8 1.5 8.9 4.7 11.9 3.2 3.2 7.1 4.7 11.9 4.7H562c4.8 0 8.9-1.5 11.9-4.7 3.2-3 4.8-7 4.8-11.9z"  horiz-adv-x="1024" />

    
    <glyph glyph-name="qianbao" unicode="&#58899;" d="M773.5 300.5c-32.9 0-59.9 28.4-59.9 63 0 34.7 26.9 63 59.9 63H961v52.4c0 33.8-26.2 61.4-58.3 61.4H250.1c-32.1 0-58.3-27.6-58.3-61.4v-424c0-33.8 26.2-61.4 58.3-61.4h652.6c32.1 0 58.3 27.6 58.3 61.4V300.5H773.5zM774.7 363.5m-41 0a41 41 0 1 1 82 0 41 41 0 1 1-82 0ZM155.4 515.2c0 33.8 27.6 61.4 61.4 61.4h632.5l-53 154.7c-10.9 31.9-46 49.1-78 38.2L106.5 559.7c-31.9-10.9-49.1-46-38.2-78l87.1-254.1V515.2z"  horiz-adv-x="1024" />

    
    <glyph glyph-name="youjiantou-tianchong" unicode="&#59197;" d="M512 864C246.4 864 32 649.6 32 384s214.4-480 480-480 480 214.4 480 480S777.6 864 512 864z m192-518.4L454.4 96c-12.8-12.8-32-12.8-44.8 0-12.8 12.8-12.8 32 0 44.8l227.2 227.2-227.2 227.2c-12.8 12.8-12.8 32 0 44.8 12.8 12.8 32 12.8 44.8 0l249.6-249.6c12.8-12.8 12.8-32 0-44.8z"  horiz-adv-x="1024" />

    
    <glyph glyph-name="xitongpeizhi" unicode="&#58942;" d="M992.6 491.9l-94.7 0c-8.7 31.3-21 61-36.6 88.7l66.9 66.9c12.2 12.2 12.2 32.2 0 44.5L820 800.1c-6.1 6.1-14.2 9.2-22.2 9.2s-16.1-3.1-22.2-9.2l-66.9-66.9c-27.7 15.6-57.4 27.9-88.7 36.6L620 864.6c0 17.3-14.2 31.4-31.4 31.4L435.6 896c-17.3 0-31.4-14.2-31.4-31.4l0-94.7c-31.3-8.7-61-21-88.7-36.6l-66.9 66.9c-6.1 6.1-14.2 9.2-22.2 9.2s-16.1-3.1-22.2-9.2L95.9 692c-12.2-12.2-12.2-32.2 0-44.5l66.9-66.9c-15.6-27.7-27.9-57.4-36.6-88.7L31.4 491.9C14.2 491.9 0 477.7 0 460.4l0-152.9c0-17.3 14.2-31.4 31.4-31.4l94.7 0c8.7-31.3 21-61 36.6-88.7l-66.9-66.9c-12.2-12.2-12.2-32.2 0-44.5L204-32.1c6.1-6.1 14.2-9.2 22.2-9.2s16.1 3.1 22.2 9.2l66.9 66.9c27.7-15.6 57.4-27.9 88.7-36.6l0-94.7c0-17.3 14.2-31.4 31.4-31.4l152.9 0c17.3 0 31.4 14.2 31.4 31.4l0 94.7c31.3 8.7 61 21 88.7 36.6l66.9-66.9c6.1-6.1 14.2-9.2 22.2-9.2s16.1 3.1 22.2 9.2L928.1 76c12.2 12.2 12.2 32.2 0 44.5l-66.9 66.9c15.6 27.7 27.9 57.4 36.6 88.7l94.7 0c17.3 0 31.4 14.2 31.4 31.4L1023.9 460.4C1024 477.7 1009.9 491.9 992.6 491.9zM960 340.1l-62.2 0-48.6 0-13.1-46.8c-7.3-26.3-17.7-51.4-30.7-74.5l-23.9-42.3 34.4-34.4 43.9-43.9-62.1-62.1-43.9 43.9-34.4 34.4-42.3-23.9c-23.1-13-48.2-23.4-74.5-30.7l-46.8-13.1 0-48.6L555.8-64l-87.8 0 0 62.2 0 48.6-46.8 13.1c-26.3 7.3-51.4 17.7-74.5 30.7l-42.3 23.9-34.4-34.4-43.9-43.9-62.1 62.1 43.9 43.9 34.4 34.4-23.9 42.3c-13 23.1-23.4 48.2-30.7 74.5l-13.1 46.8-48.6 0L64 340.2l0 87.8 62.2 0 48.6 0 13.1 46.8c7.3 26.3 17.7 51.4 30.7 74.5l23.9 42.3-34.4 34.4-43.9 43.9 62.1 62.1 43.9-43.9 34.4-34.4 42.3 23.9c23.1 13 48.2 23.4 74.5 30.7l46.8 13.1 0 48.6L468.2 832l87.8 0 0-62.2 0-48.6 46.8-13.1c26.3-7.3 51.4-17.7 74.5-30.7l42.3-23.9 34.4 34.4 43.9 43.9 62.1-62.1-43.9-43.9-34.4-34.4 23.9-42.3c13-23.1 23.4-48.2 30.7-74.5l13.1-46.8 48.6 0L960 427.8 960 340.1zM512 576c-106 0-192-86-192-192 0-106 86-192 192-192 106 0 192 86 192 192C704 490 618 576 512 576zM602.5 293.5C578.3 269.3 546.2 256 512 256c-34.2 0-66.3 13.3-90.5 37.5C397.3 317.7 384 349.8 384 384c0 34.2 13.3 66.3 37.5 90.5 24.2 24.2 56.3 37.5 90.5 37.5 34.2 0 66.3-13.3 90.5-37.5 24.2-24.2 37.5-56.3 37.5-90.5C640 349.8 626.7 317.7 602.5 293.5z"  horiz-adv-x="1024" />

    
    <glyph glyph-name="dianzan1" unicode="&#58892;" d="M884.876 472.857h-237.905c92.186 340.464-63.517 357.853-63.517 357.853-65.993 0-52.312-52.182-57.303-60.882 0-166.502-176.85-296.972-176.85-296.972v-472.172c0-46.608 63.517-63.394 88.433-63.394h357.452c33.641 0 61.036 88.224 61.036 88.224 88.434 300.706 88.434 390.177 88.434 390.177 0.001 62.128-59.781 57.164-59.781 57.164v0 0zM251.671 472.7h-142.457c-29.42 0-29.873-28.896-29.873-28.896l29.42-476.203c0-30.309 30.361-30.309 30.361-30.309h123.297c25.686 0 25.459 20.050 25.459 20.050l-0 479.247c0 36.574-36.208 36.111-36.208 36.111v0 0zM251.671 472.7z"  horiz-adv-x="1024" />

    
    <glyph glyph-name="huifu" unicode="&#58991;" d="M960 57.6l-224 0 0 0L371.2 57.6l0 0L320 57.6l0 0L307.2 57.6l-128-128c-6.4-6.4-19.2-12.8-32-12.8l0 0 0 0 0 0c-12.8 0-25.6 6.4-32 12.8l0 0-6.4 6.4 0 0 0 6.4 0 0 0 6.4c0 0 0 6.4 0 12.8l0 0L108.8 64 102.4 64l0 0L44.8 64C19.2 64 0 83.2 0 108.8L0 800c0 25.6 19.2 51.2 44.8 51.2l928 0C998.4 851.2 1024 832 1024 800l0-691.2C1011.2 76.8 992 57.6 960 57.6zM256 537.6c-51.2 0-96-44.8-96-96S204.8 345.6 256 345.6s96 44.8 96 96S313.6 537.6 256 537.6zM499.2 537.6C448 537.6 403.2 492.8 403.2 441.6S448 345.6 499.2 345.6s96 44.8 96 96S550.4 537.6 499.2 537.6zM736 537.6c-51.2 0-96-44.8-96-96s44.8-96 96-96S832 396.8 832 441.6 793.6 537.6 736 537.6z"  horiz-adv-x="1024" />

    
    <glyph glyph-name="ego-favoritefull" unicode="&#58898;" d="M545.935 764.362l74.941-231.892c4.242-15.553 18.382-25.452 33.935-25.452h243.205c35.349 0 49.49-45.248 21.21-65.043l-195.13-142.813c-12.725-9.899-18.382-25.452-12.725-41.007l74.941-231.892c11.312-33.935-26.866-60.801-56.56-41.007l-196.543 144.226c-12.725 9.899-29.694 9.899-42.42 0l-196.543-144.226c-28.278-21.21-66.458 7.069-56.56 41.007l74.941 231.892c4.242 15.553 0 31.108-12.725 41.007l-196.543 142.813c-28.278 21.21-14.141 65.043 21.21 65.043h243.205c15.553 0 29.694 9.899 33.935 25.452l74.941 231.892c11.312 33.935 59.387 33.935 69.285 0z"  horiz-adv-x="1024" />

    
    <glyph glyph-name="xiazai" unicode="&#58938;" d="M123.713536 575.387648 382.262272 575.387648 382.262272 831.463424 575.788032 831.463424l0-256.074752L830.180352 575.388672 476.946432 194.479104 123.713536 575.387648zM829.90592 192.224256l0-62.464L124.913664 129.760256l0 62.464L58.868736 192.224256l0-190.454784 66.044928 0 704.992256 0 61.436928 0L891.342848 192.224256 829.90592 192.224256z"  horiz-adv-x="1024" />

    
    <glyph glyph-name="jifen" unicode="&#58936;" d="M511.455601-63.439612c-247.033279 0-448.0055 200.972221-448.0055 448.0055S264.422322 832.571389 511.455601 832.571389s448.0055-200.972221 448.0055-448.0055S758.487857-63.439612 511.455601-63.439612zM511.455601 796.731112c-227.275283 0-412.165224-184.898127-412.165224-412.165224s184.889941-412.165224 412.165224-412.165224S923.619802 157.299815 923.619802 384.565888 738.730884 796.731112 511.455601 796.731112zM529.658172 649.85802l71.885214-133.204791c2.980891-5.522784 8.308223-9.393951 14.481829-10.521634l148.899238-27.204595c16.183588-2.956332 22.601764-22.710234 11.247158-34.615379L671.701259 334.782042c-4.331655-4.541433-6.365988-10.804067-5.531993-17.023722l20.138666-150.017712c2.188852-16.305361-14.614859-28.513404-29.445636-21.393239l-136.452765 65.51104c-5.65786 2.715855-12.242835 2.715855-17.900695 0l-136.452765-65.51104c-14.830777-7.120165-31.634488 5.087878-29.445636 21.393239l20.138666 150.017712c0.835018 6.219655-1.200338 12.482289-5.53097 17.023722L246.7488 444.311621c-11.354606 11.904121-4.936429 31.658024 11.247158 34.615379l148.899238 27.204595c6.173606 1.127683 11.500938 4.998851 14.481829 10.521634l71.886237 133.204791C501.075183 664.335756 521.845229 664.335756 529.658172 649.85802z"  horiz-adv-x="1024" />

    
    <glyph glyph-name="huiyuan" unicode="&#59157;" d="M512-128C229.2224-128 0 101.2224 0 384 0 666.7776 229.2224 896 512 896 794.7776 896 1024 666.7776 1024 384 1024 101.2224 794.7776-128 512-128ZM819.2 588.8 563.2 588.8 563.2 486.4 597.1456 486.4C568.5248 416.6144 539.8528 347.904 512 282.4704 484.1472 347.904 455.4752 416.6144 426.8544 486.4L460.8 486.4 460.8 588.8 204.8 588.8 204.8 486.4 316.416 486.4C421.3248 229.4272 512 25.6 512 25.6 512 25.6 602.624 229.4272 707.584 486.4L819.2 486.4 819.2 588.8Z"  horiz-adv-x="1024" />

    
    <glyph glyph-name="mogui" unicode="&#58880;" d="M966.656 822.272q25.6-58.368 33.792-110.592 3.072-22.528 3.072-46.08t-5.632-45.056-18.944-40.448-35.84-31.232q-2.048-2.048-5.12-2.56t-5.12-2.56q14.336-36.864 21.504-76.8t7.168-81.92q0-93.184-35.328-174.592t-95.744-142.336-142.336-96.256-174.08-35.328q-93.184 0-174.592 35.328t-142.336 96.256-96.256 142.336-35.328 174.592q0 81.92 28.672 156.672l-7.168 4.096-7.168 3.072q-23.552 12.288-36.352 31.232t-18.944 40.448-5.632 45.056 3.584 46.08q8.192 52.224 33.792 110.592 11.264-34.816 25.6-68.608 12.288-28.672 29.696-58.368t37.888-49.152q61.44 86.016 156.16 136.192t208.384 50.176q55.296 0 107.52-13.312t98.304-37.376 85.504-57.856 70.144-75.776q20.48 20.48 36.864 49.664t28.672 56.832q14.336 32.768 25.6 67.584zM248.832 621.568q13.312-43.008 28.672-78.848 13.312-30.72 29.696-59.904t33.792-37.376q17.408-9.216 36.864-1.536t35.84 20.992q18.432 15.36 37.888 38.912zM766.976 257.024q1.024 2.048 1.024 7.168t-1.536 11.264-6.144 11.264-12.8 8.192q-23.552-28.672-58.368-51.2-29.696-19.456-75.264-35.328t-107.008-15.872q-60.416 0-103.936 15.872t-73.216 35.328q-33.792 22.528-57.344 51.2-8.192-2.048-12.288-7.168t-6.144-11.264-2.048-11.264 1.024-8.192q1.024-1.024 1.024-3.072 9.216-27.648 32.768-51.712t57.344-41.984 76.288-27.648 89.6-9.728q93.184 0 160.768 33.792t92.16 89.088q0 2.048 1.024 4.096t3.072 7.168zM681.984 445.44q17.408 8.192 33.792 37.376t29.696 59.904q15.36 35.84 28.672 78.848l-202.752-117.76q19.456-23.552 37.888-38.912 16.384-13.312 35.84-20.992t36.864 1.536z"  horiz-adv-x="1024" />

    
    <glyph glyph-name="shenghuo" unicode="&#58920;" d="M486.783502 832.627701l37.690175 0 0-112.36441 53.268713-67.60592 73.387878-93.168312L504.379073 559.489058 357.576711 559.489058l73.388901 93.168312 55.821984 70.861213L486.787596 832.627701 486.783502 832.627701zM268.829294 9.214547l77.081167 0 0 504.708594 319.458773 0 0-504.708594 61.07896 0L726.448194 415.939942l139.242837 0 0-406.723348 93.004575 0 0-72.125057c-342.010453 0-546.954747 0-893.751433 0L64.944173 550.834542l203.88512-120.241176L268.829294 9.214547 268.829294 9.214547zM516.720738 155.509325l0-56.816685 44.13015 0 0 56.816685L516.720738 155.509325 516.720738 155.509325zM120.156238 241.582715l-26.706503 0 0 0 0-34.338687M221.975995 181.388957l0-34.312079 26.73004 0 0 34.312079L221.975995 181.388957 221.975995 181.388957zM221.975995 363.500147l0-34.288542 26.73004 0 0 34.288542L221.975995 363.500147 221.975995 363.500147zM179.131179 363.500147l0-34.288542 26.71162 0 0 34.288542L179.131179 363.500147 179.131179 363.500147zM135.294732 181.388957l0-34.312079 26.682966 0 0 34.312079L135.294732 181.388957 135.294732 181.388957zM135.294732 303.353463l0-34.360177 26.682966 0 0 34.360177L135.294732 303.353463 135.294732 303.353463zM93.449735 363.500147l0-34.288542 26.706503 0 0 34.288542L93.449735 363.500147 93.449735 363.500147zM751.041468 231.449451l0-42.647308 33.171038 0 0 42.647308L751.041468 231.449451 751.041468 231.449451zM751.041468 156.673903l0-42.601257 33.171038 0 0 42.601257L751.041468 156.673903 751.041468 156.673903zM751.041468 382.890683l0-42.646285 33.171038 0L784.212506 382.890683 751.041468 382.890683 751.041468 382.890683zM802.994146 308.164257l0-42.647308 33.150571 0 0 42.647308L802.994146 308.164257 802.994146 308.164257zM802.994146 382.890683l0-42.646285 33.150571 0L836.144717 382.890683 802.994146 382.890683 802.994146 382.890683zM382.289717 155.509325l0-56.816685 44.153687 0 0 56.816685L382.289717 155.509325 382.289717 155.509325zM382.289717 357.155344l0-56.766541 44.153687 0 0 56.766541L382.289717 357.155344 382.289717 357.155344zM583.234738 357.155344l0-56.766541 44.153687 0 0 56.766541L583.234738 357.155344 583.234738 357.155344zM516.720738 357.155344l0-56.766541 44.13015 0 0 56.766541L516.720738 357.155344 516.720738 357.155344zM450.476904 357.155344l0-56.766541 44.155734 0 0 56.766541L450.476904 357.155344 450.476904 357.155344zM382.289717 456.668459l0-56.790078 44.153687 0 0 56.790078L382.289717 456.668459 382.289717 456.668459zM583.234738 456.668459l0-56.790078 44.153687 0 0 56.790078L583.234738 456.668459 583.234738 456.668459zM516.720738 456.668459l0-56.790078 44.13015 0 0 56.790078L516.720738 456.668459 516.720738 456.668459zM382.289717 254.947735l0-56.744027 44.153687 0 0 56.744027L382.289717 254.947735 382.289717 254.947735zM583.234738 254.947735l0-56.744027 44.153687 0 0 56.744027L583.234738 254.947735z"  horiz-adv-x="1025" />

    
    <glyph glyph-name="iconset0403" unicode="&#59162;" d="M565.333333 290.133333c-44.8 38.4-40.533333 55.466667-98.133333 55.466667s-93.866667-12.8-78.933333-93.866667 57.6-44.8 53.333333-104.533333 10.666667-74.666667 19.2-89.6 38.4-57.6 49.066667 2.133333 29.866667 93.866667 53.333333 123.733333S610.133333 251.733333 565.333333 290.133333zM407.466667 430.933333c2.133333 29.866667 51.2 61.866667 85.333333 76.8s64 19.2 59.733333 44.8S539.733333 597.333333 488.533333 597.333333s-29.866667-70.4-72.533333-27.733333 8.533333 29.866667 29.866667 40.533333 42.666667 49.066667 6.4 51.2-29.866667-17.066667-59.733333-6.4-42.666667-38.4-61.866667-29.866667c-12.8 4.266667-44.8 29.866667-68.266667 53.333333-44.8-36.266667-78.933333-83.2-102.4-138.666667 6.4-72.533333 44.8-108.8 44.8-108.8s19.2-46.933333 140.8-104.533333c0 0 23.466667-2.133333-4.266667 25.6s-55.466667 59.733333-23.466667 76.8 42.666667 17.066667 51.2-17.066667S405.333333 398.933333 407.466667 430.933333zM893.866667 420.266667c0 4.266667 0 6.4-2.133333 10.666667 0 8.533333-2.133333 17.066667-4.266667 23.466667 0 4.266667-2.133333 8.533333-2.133333 12.8-2.133333 8.533333-4.266667 14.933333-6.4 23.466667 0 4.266667-2.133333 6.4-2.133333 10.666667-4.266667 10.666667-6.4 21.333333-10.666667 29.866667-2.133333 4.266667-4.266667 8.533333-6.4 12.8-2.133333 6.4-6.4 10.666667-8.533333 17.066667-2.133333 4.266667-6.4 10.666667-8.533333 14.933333-2.133333 4.266667-4.266667 8.533333-8.533333 12.8-4.266667 4.266667-6.4 10.666667-10.666667 14.933333-2.133333 2.133333-4.266667 6.4-6.4 8.533333-14.933333 19.2-32 38.4-51.2 55.466667-2.133333 0-2.133333 2.133333-4.266667 2.133333-6.4 6.4-12.8 10.666667-21.333333 17.066667 0 0 0 0-2.133333 0-29.866667 23.466667-64 42.666667-100.266667 55.466667-10.666667-17.066667-21.333333-38.4-34.133333-46.933333-19.2-10.666667-17.066667-53.333333 19.2-49.066667 0 0-10.666667-10.666667 0-49.066667s27.733333-46.933333 81.066667-25.6c23.466667 8.533333 40.533333 4.266667 38.4-19.2-6.4-49.066667-42.666667-46.933333-14.933333-125.866667 17.066667-49.066667 59.733333-66.133333 76.8-104.533333 8.533333-21.333333 42.666667-38.4 70.4-53.333333 2.133333 10.666667 6.4 21.333333 8.533333 29.866667 0 4.266667 2.133333 8.533333 2.133333 12.8 2.133333 8.533333 2.133333 14.933333 4.266667 23.466667 0 4.266667 0 6.4 2.133333 10.666667 0 10.666667 2.133333 23.466667 2.133333 34.133333C896 396.8 896 407.466667 893.866667 420.266667zM748.8 294.4c-14.933333-8.533333-14.933333-29.866667-2.133333-40.533333 12.8-10.666667 38.4-25.6 46.933333 0S763.733333 302.933333 748.8 294.4zM512 853.333333C251.733333 853.333333 42.666667 644.266667 42.666667 384s209.066667-469.333333 469.333333-469.333333 469.333333 209.066667 469.333333 469.333333S772.266667 853.333333 512 853.333333zM512-42.666667C277.333333-42.666667 85.333333 149.333333 85.333333 384S277.333333 810.666667 512 810.666667c234.666667 0 426.666667-192 426.666667-426.666667S746.666667-42.666667 512-42.666667z"  horiz-adv-x="1024" />

    
    <glyph glyph-name="jiantouarrow498" unicode="&#59044;" d="M838.0416 639.03744 689.7664 490.77248l89.35424-38.74816c2.99008-1.30048 4.75136-4.44416 4.3008-7.66976-0.44032-3.2256-3.01056-5.76512-6.2464-6.18496l-222.54592-29.10208c-2.23232-0.28672-4.48512 0.48128-6.07232 2.06848s-2.3552 3.82976-2.06848 6.07232l29.09184 222.54592c0.2048 1.62816 0.95232 3.09248 2.05824 4.18816 1.08544 1.08544 2.51904 1.83296 4.12672 2.05824 3.2256 0.45056 6.36928-1.31072 7.65952-4.3008l38.74816-89.35424 148.2752 148.2752c2.83648 2.82624 7.424 2.816 10.26048-0.01024l51.33312-51.32288C840.87808 646.47168 840.87808 641.88416 838.0416 639.03744zM474.10176 354.23232l-222.54592-29.09184c-3.23584-0.41984-5.79584-2.95936-6.2464-6.18496-0.45056-3.2256 1.30048-6.36928 4.3008-7.66976l89.35424-38.74816-148.2752-148.26496c-2.83648-2.83648-2.83648-7.43424 0-10.27072l51.33312-51.32288c2.83648-2.83648 7.424-2.84672 10.26048-0.01024l148.2752 148.2752 38.74816-89.35424c1.29024-2.99008 4.43392-4.74112 7.65952-4.29056 1.61792 0.22528 3.04128 0.96256 4.12672 2.048 1.10592 1.09568 1.85344 2.56 2.05824 4.1984l29.09184 222.54592c0.28672 2.24256-0.48128 4.48512-2.06848 6.07232S476.33408 354.52928 474.10176 354.23232zM680.35584 267.83744l89.35424 38.74816c2.99008 1.29024 4.74112 4.43392 4.29056 7.64928-0.22528 1.61792-0.96256 3.05152-2.05824 4.12672-1.09568 1.10592-2.56 1.86368-4.18816 2.05824l-222.54592 29.10208c-2.24256 0.28672-4.48512-0.48128-6.07232-2.06848-1.5872-1.5872-2.3552-3.84-2.05824-6.07232l29.09184-222.54592c0.41984-3.23584 2.95936-5.79584 6.18496-6.2464 3.2256-0.45056 6.36928 1.31072 7.66976 4.3008l38.74816 89.35424 148.26496-148.26496c2.83648-2.83648 7.43424-2.83648 10.27072 0l51.32288 51.33312c2.83648 2.83648 2.84672 7.43424 0.01024 10.26048L680.35584 267.83744zM338.93376 495.47264l-89.35424-38.74816c-2.99008-1.29024-4.74112-4.43392-4.29056-7.64928 0.22528-1.61792 0.96256-3.04128 2.048-4.12672 1.10592-1.10592 2.56-1.86368 4.1984-2.05824l222.54592-29.10208c2.24256-0.28672 4.48512 0.48128 6.07232 2.06848s2.3552 3.84 2.06848 6.07232l-29.09184 222.54592c-0.41984 3.23584-2.95936 5.79584-6.18496 6.2464-3.2256 0.45056-6.36928-1.31072-7.66976-4.3008l-38.74816-89.35424L252.2624 705.34144c-2.83648 2.83648-7.43424 2.83648-10.27072 0l-51.32288-51.33312c-2.83648-2.83648-2.83648-7.43424 0-10.26048L338.93376 495.47264z"  horiz-adv-x="1024" />

    
    <glyph glyph-name="zhibo" unicode="&#58921;" d="M925.603992 137.641079 925.603992 630.358921 667.414629 410.461675 667.414629 643.706927 148.004869 643.706927 148.004869 124.293073 667.414629 124.293073 667.414629 360.577544Z"  horiz-adv-x="1024" />

    
    <glyph glyph-name="dianshiju" unicode="&#58912;" d="M892.9 750.8H130.1c-33.5 0-60.7-27.2-60.7-60.7v-503.4c0-33.4 27.2-60.7 60.7-60.7h762.8c33.5 0 60.7 27.2 60.7 60.7V690.2c0 33.4-27.3 60.6-60.7 60.6z m8.7-564.1c0-4.8-3.9-8.7-8.7-8.7H130.1c-4.8 0-8.7 3.9-8.7 8.7V690.2c0 4.8 3.9 8.7 8.7 8.7h762.8c4.8 0 8.7-3.9 8.7-8.7v-503.5zM719.3 72.1h-416c-14.4 0-26-11.6-26-26s11.6-26 26-26h416.1c14.4 0 26 11.6 26 26s-11.7 26-26.1 26z m-83.2 384.8l-173.4 104c-8 4.8-18 4.9-26.2 0.3-8.1-4.6-13.2-13.3-13.2-22.6v-208c0-9.4 5-18 13.2-22.6 4-2.3 8.4-3.4 12.8-3.4 4.6 0 9.3 1.3 13.4 3.7l173.4 104c7.8 4.7 12.6 13.2 12.6 22.3 0 9.1-4.8 17.6-12.6 22.3z"  horiz-adv-x="1024" />

    
    <glyph glyph-name="Dancing" unicode="&#58894;" d="M418.060596 896C356.482291 896 306.137041 845.65475 306.137041 784.076445c0-48.81902 31.888038-90.352833 75.680673-105.574437L351.92395 672.15289c-0.508743-0.081399-0.77329-0.529093-1.282033-0.630842a55.839679 55.839679 0 0 1-41.309967-34.350356 20.349737 20.349737 0 0 1 0-0.630842l-56.612969-143.730194-100.487003 26.088363a20.349737 20.349737 0 0 1-0.610492 0c-30.606005 6.104921-62.371945-12.922083-68.700713-44.525225-6.104921-30.585655 10.82606-60.41837 39.437791-69.942047a20.349737 20.349737 0 0 1 1.892526 0l150.079312-38.806949a20.349737 20.349737 0 0 1 4.476942-0.610492c1.343083-0.651192 2.034974-1.933225 8.892835-1.933225 14.550062 0 26.739555 6.654364 36.873724 15.913494v-78.22439l-57.223461-158.992497c-0.101749-0.183148 0.081399-0.427344 0-0.610492l-0.630842-1.282034c-6.16597-13.776772-5.555478-29.364671 0-43.243191l75.660323-186.973386a20.349737 20.349737 0 0 1 0-0.630842c9.238781-21.570721 29.507119-36.894074 53.418061-36.894074 3.86645 0 11.843547-0.223847 22.262612 4.476942 0.284896 0.122098 0.997137-0.142448 1.282034 0v0.610492c26.495358 12.820334 40.231431 43.446689 29.242572 71.875272l1.282034 0.630842-54.700094 171.711083 44.525225 99.18462 12.718586-96.010061c0-0.813989 1.220984-1.689028 1.261683-2.543717 0.406995-10.03242 3.988549-21.530022 12.087744-31.175797l-0.651191-0.610492 1.912875-2.564067L577.053093-60.437651a20.349737 20.349737 0 0 1 0-0.630842c11.64005-14.570412 29.690267-21.631771 46.397401-21.631771 10.724312 0 23.809193 3.601903 34.350357 12.718586l0.651192-0.630842c0.406995 0.305246 0.223847 0.956438 0.610492 1.282034 0.406995 0.366295 0.895388 0.244197 1.282033 0.610492l-0.630842 0.651191c23.402198 19.495048 29.568168 53.845405 10.805711 78.855232l-97.922936 134.817009V553.229026l52.766869-54.048903a56.714718 56.714718 0 0 1 72.506114-6.369467h0.630841l111.292714 75.049831a20.349737 20.349737 0 0 1 1.282033 0.630842c23.870242 17.907769 32.803776 52.848268 14.611111 80.137265-17.80602 26.698855-54.98499 33.495668-81.398949 15.893145l-73.767797-49.61266L591.033363 694.435852c-14.143067 14.122718-33.068323 19.067704-52.156377 15.893145a20.349737 20.349737 0 0 1-0.610492 0l-45.786909-9.544027A111.679358 111.679358 0 0 1 529.984151 784.076445C529.984151 845.65475 479.638901 896 418.060596 896z m0-40.699475C457.640835 855.300525 489.284677 823.656684 489.284677 784.076445S457.640835 712.852365 418.060596 712.852365A70.918834 70.918834 0 0 0 346.836516 784.076445C346.836516 823.656684 378.480357 855.300525 418.060596 855.300525z m127.185858-185.06051c0.366295 0.061049 0.875039-0.02035 1.282034 0 5.43338 0.325596 13.898871-2.441968 15.872795-4.456593l91.573817-91.573817a20.349737 20.349737 0 0 1 25.437172-2.523368l87.768417 59.136337c10.215568 6.796812 18.192665 5.474079 24.806329-4.456593 6.22702-9.360879 2.950712-18.925256-5.718276-25.437171l-110.661871-74.39864a20.349737 20.349737 0 0 1-0.630842-0.651191c-5.575828-3.968199-15.221603-2.706515-20.349737 1.912875l-87.768417 89.681292a20.349737 20.349737 0 0 1-34.960848-14.651811v-463.567015a20.349737 20.349737 0 0 1 3.8054-12.087743l101.748687-140.555636a20.349737 20.349737 0 0 1 0.651191 0c5.046735-6.715413 2.706515-19.413649-4.476942-24.78598A20.349737 20.349737 0 0 1 631.732838-40.087914c-1.302383-1.302383-3.520505-1.912875-8.261994-1.912875-7.285206 0-9.828923 0.732591-14.000619 5.738626l-0.630842 0.610492-111.292713 150.099662a20.349737 20.349737 0 0 1-1.892526 2.543717c-1.322733 1.302383-2.543717 2.869313-2.543717 7.631151a20.349737 20.349737 0 0 1 0 2.543718l-22.262612 169.147016a20.349737 20.349737 0 0 1-38.806949 5.738626l-77.573199-171.080242a20.349737 20.349737 0 0 1-0.630842-14.611111l57.223462-178.711393a20.349737 20.349737 0 0 1 0.651191-2.543717c3.07281-6.918911-1.973925-17.968818-10.174868-21.611421-0.813989-0.081399-3.194909-0.651192-5.738626-0.651191-4.558341 0-12.922083 5.148484-15.893145 12.087744l-75.049831 186.973386c-2.31987 5.820025-1.668678 10.012071-0.610492 12.067394a20.349737 20.349737 0 0 1 0.610492 1.912875l59.156686 164.710773a20.349737 20.349737 0 0 1 1.261684 7.00031v164.690424a20.349737 20.349737 0 0 1-39.417441 7.631151l-22.262613-54.048902c-2.848963-6.613665-10.602213-11.009208-15.262303-11.436552-0.569793 0.284896-2.706515 0.325596-3.82575 0.630842L135.707992 443.218346c-0.162798 0.061049 0.162798 0.569793 0 0.630842-7.814299 2.950712-15.343702 12.983132-13.349428 22.893454 1.729728 8.689338 10.174869 14.000619 19.698546 12.718586H143.339143l117.010989-30.524606a20.349737 20.349737 0 0 1 24.175488 12.087744l62.941738 160.885023c1.465181 3.662953 7.651501 9.014934 10.82606 9.544027a20.349737 20.349737 0 0 1 0.610492 0.630841l186.342544 38.155758zM874.016809 489.005255c-16.27979 0-20.349737-10.174869-20.349737-20.349737v-142.448161c0-22.384711 0-40.699475-40.699474-40.699475-59.014238 0-81.398949-24.419685-81.398949-61.049212 0-16.27979 12.209842-61.049212 81.398949-61.049211 77.329002 0 81.398949 52.909317 81.398949 81.398949v142.44816c0 14.244816 2.034974 20.349737 10.174868 20.349738 38.664501 0 52.787218-20.349737 93.486693-20.349738 0 0 20.471836 0.122098 18.436862 18.436862V448.30578c0 16.27979-8.139895 20.349737-20.349737 20.349738-73.259054 0-52.909317 20.349737-122.098424 20.349737z"  horiz-adv-x="1024" />

    
    <glyph glyph-name="yule" unicode="&#58903;" d="M512-128C229.239467-128 0 101.239467 0 384S229.239467 896 512 896 1024 666.760533 1024 384 794.760533-128 512-128z m62.805333 825.480533c0-4.824178 0.4096-9.853156 1.137778-15.018666 5.461333-38.024533 28.603733-82.033778 60.2112-119.739734 31.516444-37.614933 70.656-68.130133 108.1344-79.234844 9.443556-2.798933 18.659556-4.3008 27.465956-4.278045a151.415467 151.415467 0 0 1-12.356267 180.588089c-46.4896 54.317511-123.107556 68.084622-184.593067 37.6832zM264.351289 280.052622c-0.455111-27.0336 13.243733-41.915733 39.458133-46.08l288.585956 192.739556c-39.867733 25.031111-73.819022 66.309689-91.386311 109.727289l-236.657778-256.386845z m9.443555-61.166933l-30.037333 28.672c-35.293867-36.590933-45.056-77.596444-35.498667-110.068622a79.394133 79.394133 0 0 1 27.989334-40.914489c13.220978-10.171733 30.1056-16.7936 49.857422-18.477511 50.221511-4.278044 121.969778 24.189156 200.476444 111.638755 61.758578 68.744533 115.074844 100.989156 157.331912 108.3392 21.0944 3.6864 39.025778 0.932978 53.384533-6.5536 14.336-7.509333 25.622756-19.888356 33.291378-35.4304 13.653333-27.670756 16.201956-65.035378 5.302044-103.810844l40.095289-11.172978c13.698844 48.651378 9.989689 96.620089-8.055467 133.142756-11.537067 23.392711-28.8768 42.211556-51.222755 53.885155-22.368711 11.696356-49.311289 16.133689-79.985778 10.786133-50.699378-8.851911-112.594489-45.147022-181.270756-121.628444-68.334933-76.094578-126.816711-101.193956-165.910755-97.848889-11.4688 0.978489-20.866844 4.5056-27.830045 9.853156a38.138311 38.138311 0 0 0-13.494044 19.706311c-5.666133 19.228444 1.592889 45.010489 25.577244 69.859555z m474.771912 233.6768c-46.671644 15.36-93.297778 51.518578-129.934223 95.232-33.336889 39.776711-58.9824 86.471111-69.336177 129.934222a151.483733 151.483733 0 0 1-32.540445-117.76c16.7936-50.062222 60.302222-101.922133 108.771556-124.063289a153.827556 153.827556 0 0 1 123.039289 16.657067z"  horiz-adv-x="1024" />

    
    <glyph glyph-name="youxi" unicode="&#58914;" d="M322.456 535.135c-41.302 0-74.906-33.604-74.906-74.91 0-41.302 33.604-74.906 74.906-74.906 41.307 0 74.911 33.604 74.911 74.906 0 41.307-33.604 74.91-74.911 74.91zM959.333 589.443c0 89.219-72.584 161.803-161.803 161.803H680.756c-25.163 0-47.996-14.274-58.17-36.36-11.14-24.176-35.399-39.797-61.8-39.797H460.784c-23.583 0-46.916 16.17-59.447 41.201-10.635 21.235-33.327 34.955-57.806 34.955H224.04c-89.219 0-161.803-72.584-161.803-161.803V402.92c0-0.759 0.026-1.514 0.066-2.072-0.04-0.72-0.066-1.444-0.066-2.173l0.004-248.656c0-38.129 14.919-73.993 42.009-100.986 27.147-27.046 63.161-41.925 101.47-41.921h0.535c79.242 0.29 114.707 32.094 140.257 125.961l29.636 90.066h269.281l29.939-91.001c27.595-81.086 58.275-125.026 141.266-125.026 78.685 0 142.701 64.016 142.701 142.701V398.676c0 0.755-0.026 1.505-0.066 2.08 0.039 0.715 0.066 1.435 0.066 2.164V589.443zM322.456 331.385c-71.043 0-128.84 57.797-128.84 128.84s57.797 128.844 128.84 128.844c71.044 0 128.845-57.801 128.845-128.844s-57.801-128.84-128.845-128.84z m478.529 101.876h-74.91v-74.91c0-14.892-12.075-26.967-26.967-26.967s-26.967 12.075-26.967 26.967v74.91h-74.91c-14.893 0-26.967 12.075-26.967 26.967s12.075 26.967 26.967 26.967h74.91v74.906c0 14.892 12.075 26.967 26.967 26.967 14.893 0 26.967-12.075 26.967-26.967v-74.906h74.91c14.892 0 26.967-12.075 26.967-26.967s-12.075-26.967-26.967-26.967z"  horiz-adv-x="1024" />

    
    <glyph glyph-name="dianying" unicode="&#59131;" d="M912 664v-560c0-18.4-6.6-34-19.6-47-13-13-28.8-19.6-47-19.6H178.6c-18.4 0-34 6.6-47 19.6-13 13-19.6 28.8-19.6 47V664c0 18.4 6.5 34 19.6 47s28.8 19.6 47 19.6h666.8c18.4 0 34-6.6 47-19.6 13.1-12.9 19.6-28.5 19.6-47z m-640-66.5v53.4c0 7.2-2.6 13.5-7.9 18.7-5.3 5.2-11.6 7.9-18.7 7.9H192c-7.2 0-13.5-2.6-18.7-7.9-5.2-5.2-7.9-11.6-7.9-18.7v-53.4c0-7.2 2.6-13.5 7.9-18.7 5.2-5.2 11.5-7.9 18.7-7.9h53.4c7.2 0 13.5 2.6 18.7 7.9 5.2 5.2 7.9 11.3 7.9 18.7z m0-160.1v53.4c0 7.2-2.6 13.5-7.9 18.7-5.3 5.2-11.6 7.9-18.7 7.9H192c-7.2 0-13.5-2.6-18.7-7.9-5.2-5.2-7.9-11.6-7.9-18.7v-53.4c0-7.2 2.6-13.5 7.9-18.7 5.2-5.2 11.5-7.9 18.7-7.9h53.4c7.2 0 13.5 2.6 18.7 7.9s7.9 11.5 7.9 18.7z m0-160v53.4c0 7.2-2.6 13.5-7.9 18.7-5.3 5.2-11.6 7.9-18.7 7.9H192c-7.2 0-13.5-2.6-18.7-7.9-5.2-5.2-7.9-11.6-7.9-18.7v-53.4c0-7.2 2.6-13.5 7.9-18.7 5.2-5.2 11.5-7.9 18.7-7.9h53.4c7.2 0 13.5 2.6 18.7 7.9 5.2 5.2 7.9 11.5 7.9 18.7z m0-160v53.4c0 7.2-2.6 13.5-7.9 18.7-5.2 5.2-11.6 7.9-18.7 7.9H192c-7.2 0-13.5-2.6-18.7-7.9-5.2-5.2-7.9-11.6-7.9-18.7v-53.4c0-7.2 2.6-13.5 7.9-18.7 5.2-5.2 11.5-7.9 18.7-7.9h53.4c7.2 0 13.5 2.6 18.7 7.9s7.9 11.4 7.9 18.7z m586.6 480.1v53.4c0 7.2-2.6 13.5-7.9 18.7s-11.6 7.9-18.7 7.9h-53.4c-7.2 0-13.5-2.6-18.7-7.9-5.2-5.2-7.9-11.6-7.9-18.7v-53.4c0-7.2 2.6-13.5 7.9-18.7 5.2-5.2 11.5-7.9 18.7-7.9H832c7.2 0 13.5 2.6 18.7 7.9 5.3 5.2 7.9 11.3 7.9 18.7z m0-160.1v53.4c0 7.2-2.6 13.5-7.9 18.7s-11.6 7.9-18.7 7.9h-53.4c-7.2 0-13.5-2.6-18.7-7.9-5.2-5.2-7.9-11.6-7.9-18.7v-53.4c0-7.2 2.6-13.5 7.9-18.7 5.2-5.2 11.5-7.9 18.7-7.9H832c7.2 0 13.5 2.6 18.7 7.9s7.9 11.5 7.9 18.7z m0-160v53.4c0 7.2-2.6 13.5-7.9 18.7s-11.6 7.9-18.7 7.9h-53.4c-7.2 0-13.5-2.6-18.7-7.9-5.2-5.2-7.9-11.6-7.9-18.7v-53.4c0-7.2 2.6-13.5 7.9-18.7 5.2-5.2 11.5-7.9 18.7-7.9H832c7.2 0 13.5 2.6 18.7 7.9 5.3 5.2 7.9 11.5 7.9 18.7z m0-160v53.4c0 7.2-2.6 13.5-7.9 18.7-5.2 5.2-11.6 7.9-18.7 7.9h-53.4c-7.2 0-13.5-2.6-18.7-7.9-5.2-5.2-7.9-11.6-7.9-18.7v-53.4c0-7.2 2.6-13.5 7.9-18.7 5.2-5.2 11.5-7.9 18.7-7.9H832c7.2 0 13.5 2.6 18.7 7.9 5.3 5.3 7.9 11.4 7.9 18.7z"  horiz-adv-x="1024" />

    
    <glyph glyph-name="zhibo1" unicode="&#58881;" d="M0 611.555556h1024v-739.555556H0V611.555556z m654.222222-369.777778l-284.444444 170.666666v-341.333333l284.444444 170.666667zM56.888889 815.559111L137.443556 896l321.820444-321.820444L378.766222 493.795556zM890.709333 896l80.440889-80.497778-321.820444-321.820444L568.888889 574.122667z"  horiz-adv-x="1024" />

    
    <glyph glyph-name="zhibo2" unicode="&#58941;" d="M126 610v-546h775V610H126z m-27 60h829c18.225 0 33-14.775 33-33v-600c0-18.225-14.775-33-33-33H99c-18.225 0-33 14.775-33 33V637c0 18.225 14.775 33 33 33zM621.817 322.373a6 6 0 0 1-0.818 8.446L458.63 464.535a6 6 0 0 1-9.814-4.631V192.47a6 6 0 0 1 9.814-4.631L621 321.555a6 6 0 0 1 0.818 0.818z m-125.045-180.85c-28.138-23.172-69.732-19.147-92.904 8.99a66 66 0 0 0-15.053 41.957V459.904c0 36.45 29.55 66 66 66a66 66 0 0 0 41.957-15.053l162.37-133.717c28.137-23.172 32.163-64.766 8.99-92.904a66 66 0 0 0-8.99-8.99l-162.37-133.717zM510.273 671.439l-150.2 180.735c-10.59 12.742-29.505 14.487-42.247 3.898-12.743-10.59-14.488-29.505-3.898-42.247l150.2-180.735c25.883-31.145 69.798-31.145 95.68 0L710.01 813.825c10.59 12.742 8.845 31.657-3.898 42.247s-31.657 8.844-42.247-3.898l-150.2-180.735c-0.673-0.81-1.248-1.31-1.696-1.583-0.448 0.274-1.023 0.774-1.695 1.583z"  horiz-adv-x="1024" />

    
    <glyph glyph-name="yinle" unicode="&#58895;" d="M202.9 180c-9.4 0-18.6 4.9-23.7 13.6-33.8 58.1-51.6 124.6-51.6 192.1 0 211.2 171.9 383.1 383.1 383.1s383.2-171.8 383.2-383c0-67.6-17.8-134-51.6-192.1-7.6-13.1-24.3-17.5-37.4-9.9-13.1 7.6-17.5 24.3-9.9 37.4 28.9 49.8 44.2 106.7 44.2 164.6 0 181.1-147.3 328.4-328.4 328.4S182.4 566.8 182.4 385.8c0-57.9 15.3-114.9 44.2-164.6 7.6-13.1 3.1-29.8-9.9-37.4-4.4-2.6-9.1-3.8-13.8-3.8zM353.4 592.4c-4 0-7.9 1.7-10.6 5.1-4.8 5.9-3.9 14.5 2 19.3 46.7 38 105.7 58.9 166 58.9 46.7 0 92.6-12.4 132.7-35.8 6.5-3.8 8.7-12.2 4.9-18.7-3.8-6.5-12.2-8.7-18.7-4.9-35.9 21-77 32.1-118.9 32.1-54.1 0-106.9-18.7-148.7-52.8-2.6-2.2-5.7-3.2-8.7-3.2zM278.2-34.9c-56.6 0-102.6 46-102.6 102.6V218.2c0 56.6 46 102.6 102.6 102.6s102.6-46 102.6-102.6v-10l-6.4-8c-13.5-16-20.9-36.3-20.9-57.2s7.4-41.2 20.9-57.2l6.4-7.6v-10c0-57.1-46-103.1-102.6-103.1z m0 301c-26.4 0-47.9-21.5-47.9-47.9v-150.5c0-26.4 21.5-47.9 47.9-47.9 23.7 0 43.4 17.2 47.2 39.8-17.3 24.3-26.7 53.4-26.7 83.3s9.4 59 26.6 83.3c-3.9 22.7-23.6 39.9-47.1 39.9zM743.4-34.9c-56.6 0-102.6 46-102.6 102.6v10l6.4 8c13.5 16 20.9 36.3 20.9 57.2s-7.4 41.2-20.9 57.2l-6.4 7.6v10c0 57 46 103 102.6 103S846 274.8 846 218.2v-150.5c0-56.6-46.1-102.6-102.6-102.6z m-47.2 94.6c3.9-22.7 23.6-39.9 47.2-39.9 26.4 0 47.9 21.5 47.9 47.9V218.2c0 26.4-21.5 47.9-47.9 47.9-23.7 0-43.4-17.2-47.2-39.8 17.3-24.3 26.7-53.4 26.7-83.3-0.1-29.9-9.5-59.1-26.7-83.3zM459.5 13c-11.3 0-20.5 9.2-20.5 20.5V230.7c0 11.3 9.2 20.5 20.5 20.5S480 242 480 230.7v-197.2c0-11.3-9.2-20.5-20.5-20.5zM555.2 45.8c-11.3 0-20.5 9.2-20.5 20.5V197.8c0 11.3 9.2 20.5 20.5 20.5s20.5-9.2 20.5-20.5v-131.5c0.1-11.3-9.1-20.5-20.5-20.5zM678.4 591m-13.7 0a13.7 13.7 0 1 1 27.4 0 13.7 13.7 0 1 1-27.4 0Z"  horiz-adv-x="1024" />

    
    <glyph glyph-name="guanggao___" unicode="&#58882;" d="M902.624 89.98400000000004H121.376c-13.728 0-24.96 11.232-24.96 24.96V592.096C96.416 653.664 146.752 704 208.32 704h607.36c61.568 0 111.904-50.336 111.904-111.904v-477.152c0-13.728-11.232-24.96-24.96-24.96Zm0-86.112H121.376c-13.728 0-24.96 11.232-24.96 24.96 0 13.728 11.232 24.96 24.96 24.96h780.832c13.728 0 24.96-11.232 24.96-24.96 0.416-13.728-10.816-24.96-24.544-24.96Zm-617.76 292.032c0-0.832-0.416-1.664-1.248-2.912v-9.568c0.832-14.56 9.152-21.632 24.544-21.632 12.48 0 21.216 5.408 25.792 16.224l10.816 32.448h95.68l9.568-32.448c3.744-10.816 12.064-16.224 25.792-16.224 15.392 0 23.712 6.656 24.544 20.384-1.248 2.912-2.08 7.488-2.912 13.728l-67.808 188.448c-7.904 17.888-20.8 27.456-37.856 28.288-17.888-0.832-30.368-10.4-36.608-28.288l-70.304-188.448Zm107.328 162.656l32.448-100.256H359.744l32.448 100.256Zm141.856-170.976c0-16.224 9.152-24.544 27.04-25.376h59.488c75.296 3.744 114.816 43.68 119.392 120.64-3.328 80.288-44.096 122.304-121.888 126.048h-58.24c-16.224-1.664-24.96-10.4-25.792-25.792v-195.52Zm51.584 173.888h31.2c44.928-0.832 68.224-26.624 69.056-77.376-2.496-48.672-24.128-73.632-64.896-74.464h-35.36v151.84Z"  horiz-adv-x="1024" />

    
    <glyph glyph-name="ziyuan" unicode="&#58891;" d="M832 512h-224v32a96 96 0 0 1-96 96h-128a32 32 0 0 0 0 64h448a96 96 0 0 1 0 192h-256v-64h256a32 32 0 0 0 0-64H384a96 96 0 0 1 0-192h128a32 32 0 0 0 32-32v-32h-224a320 320 0 0 1 0-640h512a320 320 0 0 1 0 640zM320 32a160 160 0 1 0 160 160 160 160 0 0 0-160-160z m448 0a64 64 0 1 0 64 64 64 64 0 0 0-64-64z m128 192a64 64 0 1 0 64 64 64 64 0 0 0-64-64z"  horiz-adv-x="1152" />

    
    <glyph glyph-name="V" unicode="&#59188;" d="M592 757.6c0 23.4-19 42.3-42.3 42.3-23.4 0-42.3-19-42.3-42.3 0-23.4 19-42.3 42.3-42.3 23.4 0 42.3 18.9 42.3 42.3zM499.6 712c-86.9-47.7-164.3-110.2-229.1-184.2 4.9-6.2 8.7-13.2 11.1-20.8 178.5-10 342.6-73.4 476.7-174.7 1.4 0.8 2.9 1.7 4.4 2.5-31.1 136.2-95.6 259.7-184.4 361.5-8.6-4-18.4-6.4-28.6-6.4-19.8 0-37.6 8.5-50.1 22.1zM549.7 825.1c20.6 0 38.9-9.2 51.2-23.5 12.1 4.3 24.4 8.6 36.7 12.4-39.9 11.6-82 18-125.6 18-5.7 0-11.4-0.2-17-0.5 6.7-5.3 13.1-10.8 19.6-16.3 10.2 6.2 22.2 9.9 35.1 9.9zM173.2 486.5c0-24.3 19.7-44 44.1-44 24.4 0 44.1 19.7 44 44 0 24.4-19.6 44.1-44 44.1s-44.1-19.7-44.1-44.1zM217.3 554c6.9 0 13.5-1.1 19.8-3 69 79.7 152.2 146.8 245.6 197.5-0.4 3-0.7 5.9-0.7 8.9 0 9.9 2.1 19.1 5.9 27.6-16.6 14-33.6 27.7-51.3 40.4-174.8-29.7-315.4-161-358.8-330.8 24.5 4.4 49.3 7.7 74.4 10.1 8.1 28.6 34.2 49.3 65.1 49.3zM153.4 464.8c-28.6-2.7-56.6-6.8-84.2-12.2-3.4-22.4-5.2-45.3-5.2-68.6 0-36.5 4.5-72 12.8-106 21.9 60.4 50.2 117.8 84.3 171.1-3.2 4.8-5.8 10.1-7.7 15.7zM821.4 213.2c1.7-21.5 2.7-43 2.7-65 0-30.4-1.8-60.4-4.9-89.8 27.2 25.8 51.3 54.9 71.4 86.6-19.4 25.2-40 49.2-62.1 71.9-2.2-1.3-4.6-2.6-7.1-3.7zM700.8 790.1c-28.5-7.1-56.5-15.5-83.8-25.4 0.3-2.3 0.4-4.7 0.4-7.2 0-12.5-3.5-24-9.3-34 93.8-107.3 161.7-237.7 194.3-381.6 33.3-4.1 59.2-32.5 59.2-67 0-9.9-2.3-19.4-6.2-28 19.9-20.5 38.9-41.9 56.7-64.1 30.6 60.5 47.9 128.8 47.9 201.1 0 179.7-106.2 334.7-259.2 406.2zM726.4 274.9c0 9.5 2 18.5 5.5 26.7-127 95.4-281.7 155.5-449.8 165.6-8.3-27.9-34.1-48.4-64.8-48.4-8.7 0-16.9 1.7-24.5 4.6-40.8-64.6-73-135.2-94.9-210.2C165.2 50.7 325.4-64 512-64c97.8 0 188.4 31.6 262 85 6.4 41.5 10 84 10 127.4 0 20.3-0.8 40.4-2.3 60.2-31.3 5.6-55.3 33.2-55.3 66.3zM837.7 275c0 24.1-19.6 43.7-43.7 43.7s-43.7-19.6-43.7-43.7 19.6-43.7 43.7-43.7 43.7 19.5 43.7 43.7z"  horiz-adv-x="1024" />

    
    <glyph glyph-name="xiazai6" unicode="&#58886;" d="M324.211517 384.194369 787.889594 822.917417c16.19422 16.630365 16.19422 43.974704 0 60.605068-16.19422 16.630365-42.495607 16.630365-58.613976 0L235.750113 416.639698c-8.647031-8.969398-12.344775-20.934917-11.719003-32.445329-0.644735-11.90863 3.071972-23.874149 11.719003-32.824585l493.506542-466.882788c16.118369-16.649327 42.438718-16.649327 58.613976 0 16.19422 17.085471 16.19422 43.974704 0 60.605068L324.211517 384.194369"  horiz-adv-x="1024" />

    
    <glyph glyph-name="jiantou" unicode="&#58893;" d="M989.866667 413.866667L597.333333 785.066667c-17.066667 17.066667-42.666667 17.066667-59.733333 0-17.066667-17.066667-17.066667-42.666667 0-59.733334l315.733333-298.666666H64c-25.6 0-42.666667-17.066667-42.666667-42.666667s17.066667-42.666667 42.666667-42.666667H853.333333l-315.733333-298.666666c-17.066667-17.066667-17.066667-42.666667 0-59.733334 8.533333-8.533333 21.333333-12.8 29.866667-12.8 8.533333 0 21.333333 4.266667 29.866666 12.8l392.533334 371.2c8.533333 8.533333 12.8 21.333333 12.8 29.866667s-4.266667 21.333333-12.8 29.866667z"  horiz-adv-x="1024" />

    
    <glyph glyph-name="icon-test17" unicode="&#58952;" d="M640 608a64 64 0 1 0 0.032 128.032A64 64 0 0 0 640 608z m123.456 96c-14.304 55.04-64 96-123.456 96s-109.152-40.96-123.456-96H128v-64h388.544c14.304-55.04 64-96 123.456-96s109.152 40.96 123.456 96H896V704h-132.544zM640 32a64 64 0 1 0 0.032 128.032A64 64 0 0 0 640 32m0 192c-59.456 0-109.152-40.96-123.456-96H128v-64h388.544c14.304-55.04 64-96 123.456-96s109.152 40.96 123.456 96H896v64h-132.544c-14.304 55.04-64 96-123.456 96M384 320a64 64 0 1 0 0.032 128.032A64 64 0 0 0 384 320m0 192c-59.456 0-109.152-40.96-123.456-96H128v-64h132.544c14.304-55.04 64-96 123.456-96s109.152 40.96 123.456 96H896v64H507.456c-14.304 55.04-64 96-123.456 96"  horiz-adv-x="1024" />

    
    <glyph glyph-name="shezhi" unicode="&#58897;" d="M881 384c0 52.4 32.9 96.8 79 114.5-11 43.2-28 83.9-50.2 121.3C864.6 599.7 810 607.9 773 645c-37 37-45.2 91.7-25.1 136.8C710.4 804 669.7 821 626.5 832c-17.8-46.1-62.2-79-114.5-79-52.4 0-96.8 32.9-114.5 79-43.2-11-83.9-28-121.3-50.2 20.1-45.2 11.9-99.8-25.1-136.8-37-37-91.7-45.2-136.8-25.2C92 582.4 75 541.7 64 498.5c46.1-17.8 79-62.2 79-114.5 0-52.4-32.9-96.8-79-114.5 11-43.2 28-83.9 50.2-121.3C159.4 168.3 214 160.1 251 123c37-37 45.2-91.7 25.1-136.8C313.6-36 354.3-53 397.5-64c17.8 46.1 62.2 79 114.5 79 52.4 0 96.8-32.9 114.5-79 43.2 11 83.9 28 121.3 50.2-20.1 45.2-11.9 99.8 25.1 136.8 37 37 91.7 45.2 136.8 25.2C932 185.6 949 226.3 960 269.5c-46.1 17.7-79 62.1-79 114.5zM512 261c-67.9 0-123 55.1-123 123s55.1 123 123 123 123-55.1 123-123-55.1-123-123-123z"  horiz-adv-x="1024" />

    
    <glyph glyph-name="shengyin" unicode="&#58986;" d="M473.088 770.56L256 640H52.224C23.552 640 0 616.448 0 587.776V179.2c0-28.16 23.04-51.2 51.2-51.2h204.8l217.088-130.56c16.896-10.24 38.912 2.048 38.912 22.016V748.544c0 19.968-21.504 32.256-38.912 22.016zM699.904 575.488c-20.992 18.944-53.248 17.408-72.192-3.584-18.944-20.992-17.408-53.248 3.584-72.192 0.512-0.512 58.368-54.784 58.368-121.344 0-37.888-19.456-74.752-58.368-110.08-20.992-18.944-22.528-51.2-3.584-72.192 10.24-11.264 24.064-16.896 37.888-16.896 12.288 0 24.576 4.608 34.304 13.312 61.44 55.296 92.16 117.76 92.16 185.856 0 112.64-88.576 193.536-92.16 197.12zM853.504 729.6c-20.992 18.944-53.248 16.896-72.192-4.096-18.944-20.992-16.896-53.248 4.096-72.192 1.536-1.024 135.68-122.88 135.68-280.576 0-90.624-45.568-177.152-135.68-257.536-20.992-18.944-23.04-51.2-4.096-72.192 10.24-11.264 24.064-16.896 38.4-16.896 12.288 0 24.576 4.096 34.304 12.8 112.64 100.864 169.984 212.992 169.984 333.824-1.024 202.752-163.84 350.208-170.496 356.864z"  horiz-adv-x="1024" />

    
    <glyph glyph-name="dianzan" unicode="&#59587;" d="M621.674667 487.978667c16.618667 74.24 28.224 127.936 34.837333 161.194666C673.152 732.906667 629.941333 810.666667 544.298667 810.666667c-77.226667 0-116.010667-38.378667-138.88-115.093334l-0.586667-2.24c-13.728-62.058667-34.72-110.165333-62.506667-144.586666a158.261333 158.261333 0 0 0-119.733333-58.965334l-21.909333-0.469333C148.437333 488.192 106.666667 445.184 106.666667 392.501333V74.666667c0-64.8 52.106667-117.333333 116.394666-117.333334h412.522667c84.736 0 160.373333 53.568 189.12 133.92l85.696 239.584c21.802667 60.96-9.536 128.202667-70.005333 150.186667a115.552 115.552 0 0 1-39.488 6.954667H621.674667z"  horiz-adv-x="1024" />

    
    <glyph glyph-name="pinglun" unicode="&#59589;" d="M512 810.666667c235.637333 0 426.666667-191.029333 426.666667-426.666667S747.637333-42.666667 512-42.666667a424.778667 424.778667 0 0 0-219.125333 60.501334 2786.56 2786.56 0 0 1-20.053334 11.765333l-104.405333-28.48c-23.893333-6.506667-45.802667 15.413333-39.285333 39.296l28.437333 104.288c-11.008 18.688-18.218667 31.221333-21.802667 37.909333A424.885333 424.885333 0 0 0 85.333333 384C85.333333 619.637333 276.362667 810.666667 512 810.666667z m-102.218667-549.76a32 32 0 1 1-40.917333-49.216A223.178667 223.178667 0 0 1 512 160c52.970667 0 103.189333 18.485333 143.104 51.669333a32 32 0 1 1-40.906667 49.216A159.189333 159.189333 0 0 0 512 224a159.189333 159.189333 0 0 0-102.218667 36.906667z"  horiz-adv-x="1024" />

    
    <glyph glyph-name="wode" unicode="&#59590;" d="M512 813.077333a424.938667 424.938667 0 0 0 196.544-47.872C762.453333 788.426667 821.482667 800 885.333333 800c23.786667 0 39.253333-25.034667 28.618667-46.314667a7024.8 7024.8 0 0 1-56.917333-116.234666A424.853333 424.853333 0 0 0 938.666667 386.410667c0-235.637333-191.029333-426.666667-426.666667-426.666667s-426.666667 191.029333-426.666667 426.666667c0 235.648 191.029333 426.666667 426.666667 426.666666zM330.666667 533.333333a42.666667 42.666667 0 0 1-42.666667-42.666666v-64a42.666667 42.666667 0 1 1 85.333333 0v64a42.666667 42.666667 0 0 1-42.666666 42.666666z m170.666666 0a42.666667 42.666667 0 0 1-42.666666-42.666666v-64a42.666667 42.666667 0 1 1 85.333333 0v64a42.666667 42.666667 0 0 1-42.666667 42.666666z"  horiz-adv-x="1024" />

    
    <glyph glyph-name="icon-test16" unicode="&#58968;" d="M512 108.608l-212.64 212.64-96.832 96.832-9.12 9.12A127.04 127.04 0 0 0 160 512.64c0 70.624 57.408 128 128 128 32.8 0 62.432-12.704 85.12-33.088l9.76-9.76 96.544-96.512L512 468.64l32.576 32.64 96.544 96.512 9.76 9.76A126.912 126.912 0 0 0 736 640.64c70.592 0 128-57.408 128-128a127.04 127.04 0 0 0-33.408-85.472l-9.12-9.12-96.832-96.832L512 108.608zM736 704.64c-47.584 0-90.944-17.6-124.48-46.272l-0.16 0.16-2.144-2.176-19.232-19.232L512 559.168 434.016 637.12l-19.232 19.2-2.144 2.208-0.16-0.16A190.944 190.944 0 0 1 288 704.64a192 192 0 0 1-192-192c0-58.176 25.984-110.176 66.848-145.408L512 18.112l349.152 349.12A191.488 191.488 0 0 1 928 512.704a192 192 0 0 1-192 192z"  horiz-adv-x="1024" />

    
    <glyph glyph-name="home" unicode="&#59035;" d="M267.168 441.376v-316.48h152V297.776c0 6.144 4.992 11.12 11.136 11.12h169.728c6.16 0 11.136-4.976 11.136-11.12v-172.88h136V442.4l-239.36 188.848-240.64-189.856z m-48-37.872l-39.36-31.04a16 16 0 0 0-22.464 2.656l-9.904 12.56a16 16 0 0 0 2.656 22.464l347.792 274.416a16 16 0 0 0 19.84 0l347.792-274.4a16 16 0 0 0 2.656-22.48l-9.92-12.56a16 16 0 0 0-22.464-2.656l-40.624 32.048v-292.48a35.136 35.136 0 0 0-35.136-35.136H254.304a35.136 35.136 0 0 0-35.136 35.136V403.504z m248-270.608h96v128h-96v-128z"  horiz-adv-x="1024" />

    
    <glyph glyph-name="nickname" unicode="&#59040;" d="M432.56 368.832a150.192 150.192 0 0 0-73.6 129.248V553.76a150.256 150.256 0 0 0 300.512 0v-55.664a150.176 150.176 0 0 0-72.048-128.32A344.432 344.432 0 0 0 824.736 177.6c2.56-5.552 7.232-11.2 7.232-16.928v-4.784H832V66.08a16 16 0 0 0-16-16H208a16 16 0 0 0-16 16V146.096l0.32 0.032c0 5.28-0.032 10.656 0.336 16.096 0.368 5.408 4.416 10.608 6.8 15.792a344.432 344.432 0 0 0 233.104 190.816zM240 151.072v-52.992h544v53.008a296.16 296.16 0 0 1-544 0zM509.216 656a102.256 102.256 0 0 1-102.256-102.256v-55.664a102.256 102.256 0 0 1 204.512 0V553.76A102.256 102.256 0 0 1 509.232 656z"  horiz-adv-x="1024" />

    
    <glyph glyph-name="message" unicode="&#59103;" d="M240 237.92h220.784l55.744-65.04 55.744 65.04h220.768V624H240v-386.08z m-48-32V656a16 16 0 0 0 16 16h617.04a16 16 0 0 0 16-16v-450.08a16 16 0 0 0-16-16H594.336l-65.664-76.64a16 16 0 0 0-24.304 0l-65.664 76.64H208a16 16 0 0 0-16 16zM366.256 397.44a33.488 33.488 0 1 0 0 66.992 33.488 33.488 0 0 0 0-66.992z m150.272 0a33.488 33.488 0 1 0 0 66.992 33.488 33.488 0 0 0 0-66.992z m150.24 0a33.488 33.488 0 1 0 0 66.992 33.488 33.488 0 0 0 0-66.992z"  horiz-adv-x="1024" />

    
    <glyph glyph-name="mirrorlightctrl" unicode="&#59104;" d="M432.352 154.784h382.96a16 16 0 0 0 16-16v-16a16 16 0 0 0-16-16H432.352v-32.352a16 16 0 0 0-16-16h-16a16 16 0 0 0-16 16v112.704a16 16 0 0 0 16 16h16a16 16 0 0 0 16-16v-32.352z m211.472 244.864h171.488a16 16 0 0 0 16-16v-16a16 16 0 0 0-16-16H643.824v-32.336a16 16 0 0 0-16-16h-16a16 16 0 0 0-16 16V432a16 16 0 0 0 16 16h16a16 16 0 0 0 16-16v-32.352z m-211.472 256h382.96a16 16 0 0 0 16-16v-16a16 16 0 0 0-16-16H432.352v-32.336a16 16 0 0 0-16-16h-16a16 16 0 0 0-16 16V688a16 16 0 0 0 16 16h16a16 16 0 0 0 16-16v-32.352z m-74.08-16v-16a16 16 0 0 0-16-16H224a16 16 0 0 0-16 16v16a16 16 0 0 0 16 16h118.256a16 16 0 0 0 16-16z m211.472-256v-16a16 16 0 0 0-16-16H224a16 16 0 0 0-16 16v16a16 16 0 0 0 16 16h329.744a16 16 0 0 0 16-16zM358.24 138.784v-16a16 16 0 0 0-16-16H224a16 16 0 0 0-16 16v16a16 16 0 0 0 16 16h118.256a16 16 0 0 0 16-16z"  horiz-adv-x="1024" />

    
    <glyph glyph-name="mark" unicode="&#59115;" d="M630.048 508.24l191.712-27.872c12.88-1.904 24.272-10.128 29.056-23.84 3.424-11.744 0.16-24.16-8.528-32.768l-0.144-0.16-140.4-137.12 32.528-190.208c2.304-13.04-3.488-25.328-14.192-32.72-10.96-7.424-26.784-8.16-38.464-2.224l-167.632 88.4-167.28-88.384c-11.84-6.128-27.36-5.456-37.6 1.568-10.336 6.496-17.968 18-15.264 33.328l32.64 190.32-140.544 137.2c-8.912 8.848-12.448 21.968-8.048 33.744 4.416 12.56 15.616 20.832 28.608 22.784l191.856 27.952 83.488 169.648c6.08 12.08 18.928 19.264 32.32 19.264 13.6 0 26.768-7.2 32.496-19.456l83.392-169.44z m-6.992-47.488a46.832 46.832 0 0 0-35.84 25.792l-73.008 148.4-73.184-148.688a47.536 47.536 0 0 0-35.408-25.456l-164.368-23.968 119.04-116.192c11.2-10.784 16.24-26.384 13.6-41.6l-28.096-163.904 146.416 77.376a47.648 47.648 0 0 0 43.84-0.16l146.288-77.12-28 163.68c-2.624 15.2 2.432 30.72 13.488 41.52l119.232 116.48-164 23.84z"  horiz-adv-x="1024" />

    
    <glyph glyph-name="icon-test15" unicode="&#58961;" d="M896 320c0-17.632-14.336-32-32-32h-64v192h64c17.664 0 32-14.368 32-32v-128z m-448-192c0 35.296 28.704 64 64 64s64-28.704 64-64-28.704-64-64-64-64 28.704-64 64z m-224 160H160c-17.664 0-32 14.368-32 32v128c0 17.632 14.336 32 32 32h64v-192z m640 256h-65.888C782.176 688 660.224 800 512 800c-148.224 0-270.176-112-286.112-256H160c-52.928 0-96-43.072-96-96v-128c0-52.928 43.072-96 96-96h128v288c0 123.52 100.512 224 224 224s224-100.48 224-224v-224a223.872 223.872 0 0 0-98.56-185.472A128.128 128.128 0 0 1 512 256c-70.592 0-128-57.408-128-128s57.408-128 128-128c137.024 0 251.456 95.776 280.64 224H864c52.928 0 96 43.072 96 96v128c0 52.928-43.072 96-96 96z"  horiz-adv-x="1024" />

    
    <glyph glyph-name="icon-test" unicode="&#58931;" d="M512 288a96 96 0 1 0 0 192 96 96 0 0 0 0-192m0 256c-88.224 0-160-71.776-160-160s71.776-160 160-160 160 71.776 160 160-71.776 160-160 160M512 96c-212.064 0-384 256-384 288s171.936 288 384 288 384-256 384-288-171.936-288-384-288m0 640C265.248 736 64 452.992 64 384c0-68.992 201.248-352 448-352s448 283.008 448 352c0 68.992-201.248 352-448 352"  horiz-adv-x="1024" />

    
    <glyph glyph-name="icon-test1" unicode="&#58937;" d="M704 320c-19.2 0-32-12.8-32-32s12.8-32 32-32 32 12.8 32 32-12.8 32-32 32M864 576H192V704h576V768H160c-19.2 0-32-12.8-32-32v-704c0-19.2 12.8-32 32-32h704c19.2 0 32 12.8 32 32V544c0 19.2-12.8 32-32 32z m-32-352h-256v128h256v-128z m0 192h-288c-19.2 0-32-12.8-32-32v-192c0-19.2 12.8-32 32-32h288v-96H192V512h640v-96z"  horiz-adv-x="1024" />

    
    <glyph glyph-name="icon-test2" unicode="&#58939;" d="M384 128a64 64 0 1 1 0.032-128.032A64 64 0 0 1 384 128M704 128a64 64 0 1 1 0.032-128.032A64 64 0 0 1 704 128M312.672 384l-51.456 192h560.96l-51.456-192H312.672z m583.36 224a32 32 0 0 1-32 32H244.064L209.824 768H96v-64h64.672l145.728-544H800v64H355.52l-25.664 96H819.84l12.16 45.376 64 238.88-0.768 0.192C895.424 605.664 896 606.72 896 608z"  horiz-adv-x="1024" />

    
    <glyph glyph-name="icon-test3" unicode="&#58940;" d="M192 448c0 141.152 114.848 256 256 256s256-114.848 256-256-114.848-256-256-256-256 114.848-256 256z m710.624-409.376l-206.88 206.88A318.784 318.784 0 0 1 768 448c0 176.736-143.264 320-320 320S128 624.736 128 448s143.264-320 320-320a318.784 318.784 0 0 1 202.496 72.256l206.88-206.88 45.248 45.248z"  horiz-adv-x="1024" />

    
    <glyph glyph-name="icon-test4" unicode="&#58944;" d="M512 0C299.936 0 128 171.936 128 384S299.936 768 512 768s384-171.936 384-384-171.936-384-384-384m0 832C264.96 832 64 631.04 64 384s200.96-448 448-448 448 200.96 448 448S759.04 832 512 832M416 550.272L704 384l-288-166.272V550.272zM800 384c0 11.84-6.72 21.728-16.256 27.264l0.256 0.448-384 221.728-0.256-0.48A30.912 30.912 0 0 1 384 637.696a32 32 0 0 1-32-32v-443.392a32 32 0 0 1 32-32 30.912 30.912 0 0 1 15.744 4.736l0.256-0.448 384 221.696-0.256 0.448A31.584 31.584 0 0 1 800 384z"  horiz-adv-x="1024" />

    
    <glyph glyph-name="icon-test5" unicode="&#58946;" d="M192 128v50.752l56.384 56.384 46.144 46.144 0.096 0.096-0.416 0.416A253.984 253.984 0 0 0 256 416a256 256 0 0 0 512 0c0-49.28-14.048-95.2-38.208-134.208l-0.416-0.416 0.096-0.096 46.144-46.144L832 178.752V128H192z m320-128a64 64 0 0 0-64 64h128a64 64 0 0 0-64-64z m374.624 214.656l-79.072 79.04A317.088 317.088 0 0 1 832 416c0 165.664-126.528 302.272-288 318.368V800h-64v-65.632C318.528 718.272 192 581.664 192 416c0-43.328 8.736-84.608 24.448-122.304l-79.072-79.04A32.032 32.032 0 0 1 128 192v-128h256c0-70.592 57.408-128 128-128s128 57.408 128 128h256v128c0 8.832-3.584 16.832-9.376 22.656z"  horiz-adv-x="1024" />

    
    <glyph glyph-name="icon-test6" unicode="&#58947;" d="M832 187.904v-120.864C494.816 97.6 225.6 366.816 195.04 704h196.544l27.136-101.312-23.776-6.368-61.728-16.544c5.12-20.896 11.456-41.28 19.072-61.12a516.032 516.032 0 0 1 297.632-296.832c19.872-7.552 40.256-13.888 61.184-18.976l16.544 61.76 6.688 24.96L832 263.36v-75.456z m42.4 129.984l0.096 0.32-123.616 33.12 0.032 0.128-30.912 8.32a31.936 31.936 0 0 1-33.568-11.36 32.32 32.32 0 0 1-5.696-11.392l-8.256-30.944h0.032l-5.984-22.24a451.84 451.84 0 0 0-252.224 251.392l20.992 5.664 0.032-0.096 30.912 8.32a32 32 0 0 1 22.624 39.168l-41.408 154.56-0.8-0.224A31.52 31.52 0 0 1 416 768H160.832c-18.496 0-32.864-15.616-31.968-34.112 0.512-10.016 1.184-19.968 2.016-29.888C161.792 331.52 459.52 33.792 832 2.88c9.92-0.832 19.872-1.504 29.888-2.016a32.224 32.224 0 0 1 34.112 32V288a31.68 31.68 0 0 1-21.6 29.856z"  horiz-adv-x="1024" />

    
    <glyph glyph-name="icon-test7" unicode="&#58948;" d="M384 416v160c0 70.4 57.6 128 128 128s128-57.6 128-128v-64h64v64c0 105.6-86.4 192-192 192s-192-86.4-192-192v-160H160v-416h704V416H384z m416-352H224v288h576v-288zM416 160h192v64h-192z"  horiz-adv-x="1024" />

    
    <glyph glyph-name="icon-test8" unicode="&#58953;" d="M192 832H128v-896h768V832H192z m640-832H192V768h640v-768zM320 672h384v-64H320zM320 480h64v-64h-64zM480 480h64v-64h-64zM640 480h64v-64h-64zM320 320h64v-64h-64zM480 320h64v-64h-64zM640 320h64v-64h-64zM320 160h64v-64h-64zM480 160h64v-64h-64zM640 160h64v-64h-64z"  horiz-adv-x="1024" />

    
    <glyph glyph-name="icon-test9" unicode="&#58954;" d="M832 269.408l-128 128-128-128-256.48 256.448L192 398.368V704.128h640V269.44z m0-205.28H192V307.84l127.52 127.52L576 178.88l128 128 128-128v-114.72z m0 704H128v-768h768v768h-64zM672 576.128c-17.632 0-32-14.368-32-32 0-17.6 14.368-32 32-32 17.632 0 32 14.4 32 32 0 17.632-14.368 32-32 32m0-128c-52.928 0-96 43.072-96 96s43.072 96 96 96 96-43.072 96-96-43.072-96-96-96"  horiz-adv-x="1024" />

    
    <glyph glyph-name="icon-test10" unicode="&#58957;" d="M512 448c-35.296 0-64 28.704-64 64s28.704 64 64 64 64-28.704 64-64-28.704-64-64-64m0 192c-70.592 0-128-57.408-128-128s57.408-128 128-128 128 57.408 128 128-57.408 128-128 128M768 98.368v69.92a151.904 151.904 0 0 1-151.712 151.68h-208.576A151.904 151.904 0 0 1 256 168.32v-69.92C177.632 168.64 128 270.4 128 384 128 596.096 299.936 768 512 768s384-171.904 384-384c0-113.6-49.632-215.36-128-285.632m-448-46.56v116.48a87.776 87.776 0 0 0 87.712 87.68h208.576A87.776 87.776 0 0 0 704 168.32v-116.48a381.568 381.568 0 0 0-384 0m192 780.16C264.96 832 64 631.04 64 384c0-246.976 200.96-448 448-448s448 201.024 448 448c0 247.04-200.96 448-448 448"  horiz-adv-x="1024" />

    
    <glyph glyph-name="icon-test11" unicode="&#58958;" d="M384 704c52.928 0 96-43.072 96-96s-43.072-96-96-96-96 43.072-96 96 43.072 96 96 96m0-256c88.224 0 160 71.776 160 160s-71.776 160-160 160-160-71.776-160-160 71.776-160 160-160M704 544a64 64 0 1 0-0.032-128.032A64 64 0 0 0 704 544m0-192c70.592 0 128 57.408 128 128s-57.408 128-128 128-128-57.408-128-128 57.408-128 128-128M772.576 287.904h-137.12c-2.944 0-5.76-0.416-8.64-0.64A160.128 160.128 0 0 1 480 384H288c-88.192 0-160-71.776-160-160v-224h64v224c0 52.928 43.072 96 96 96h192c52.96 0 96-43.072 96-96v-224h64v223.904h132.576c32.768 0 59.424-26.656 59.424-59.392V0h64v164.512a123.52 123.52 0 0 1-123.424 123.392"  horiz-adv-x="1024" />

    
    <glyph glyph-name="icon-test12" unicode="&#58959;" d="M128 640h64V704H128zM320 640h576V704H320zM128 352h64v64H128zM320 352h576v64H320zM128 64h64v64H128zM320 64h576v64H320z"  horiz-adv-x="1024" />

    
    <glyph glyph-name="icon-test13" unicode="&#58960;" d="M623.008 16.672c-10.624 20.096-21.888 49.344-15.68 66.816 5.28 14.624 9.568 18.144 18.112 25.12 11.424 9.312 27.04 22.048 39.488 54.304 4.768 12.48 7.936 25.024 10.944 37.12 10.976 43.904 14.88 50.656 46.72 46.976 23.872-2.816 38.72-14.304 55.872-27.648 16.864-13.056 36-26.944 62.368-31.488a384.704 384.704 0 0 0-217.824-171.2M181.76 187.232c27.744 3.328 58.112 13.024 79.776 36.704 23.968 26.112 24.128 60.256 24.256 87.68 0.192 37.344 2.24 47.584 21.12 54.624 25.856 9.568 37.536 0.416 61.76-21.088 14.272-12.64 30.4-26.976 51.84-33.568 25.248-7.776 55.488-4.16 80.832 9.76a107.744 107.744 0 0 1 52.032 64.8l0.128-0.032 0.224 0.96c0.096 0.256 0.224 0.448 0.288 0.704 0.256 0.928 0.288 1.792 0.544 2.72 1.888 6.528 3.2 13.088 4.032 19.616 0.416 2.912 0.544 5.568 0.8 8.384 0.16 2.24 0.448 4.512 0.544 6.72a311.424 311.424 0 0 1-0.832 44.16 337.6 337.6 0 0 0-1.024 19.552c0.32 7.456 1.664 13.44 4.352 17.216 5.216 2.528 19.2 5.024 28.864 6.72 26.688 4.672 59.328 10.656 79.04 33.824l0.288 0.224-0.032 0.032c1.152 1.376 2.464 2.592 3.52 4.096 33.344 46.976 31.296 95.52-5.28 126.752a120.768 120.768 0 0 1-8.992 6.656c-21.536 14.976-30.72 25.536-24.416 44.928 1.856 5.856 3.84 10.912 5.824 15.52 147.904-53.408 253.824-194.592 253.824-360.896 0-46.24-8.64-90.4-23.584-131.456-6.08-1.6-11.424-2.72-14.144-2.72-13.152 0-22.656 6.88-39.68 20.128-20.544 15.936-46.08 35.744-87.616 40.608-89.504 10.656-106.4-55.488-116.288-94.976-2.496-10.048-4.96-20.256-8.64-29.696-6.272-16.384-11.52-20.64-20.16-27.68-11.232-9.184-26.656-21.76-37.888-53.184-12.48-34.816-1.088-73.792 11.36-101.792-15.52-1.92-31.264-3.232-47.36-3.232-140.032 0-262.208 75.232-329.312 187.232M511.04 768c23.264 0 45.92-2.4 68.032-6.368-1.6-4.032-3.136-8.032-4.608-12.608-21.888-67.904 31.36-104.96 48.832-117.088 1.664-1.184 3.072-2.112 3.968-2.816 3.904-3.328 13.824-12.192-3.616-38.336-6.176-5.28-12.512-6.24-28-6.976-20.832-0.992-52.16-2.528-80-33.504l-0.128-0.096-0.064-0.096-0.352-0.32c-0.576-0.64-0.96-1.344-1.472-1.984-14.784-17.312-18.976-36.256-19.424-54.848-0.672-12.288 0.096-24.64 0.832-36.416 0.8-12.896 1.472-25.184 0.416-36.096-0.672-5.12-1.664-10.368-3.136-15.744a43.84 43.84 0 0 0-21.76-27.232c-10.176-5.568-22.528-7.456-31.168-4.736-8.192 2.528-17.952 11.168-28.256 20.32-25.376 22.496-63.68 56.544-126.56 33.152-62.336-23.232-62.592-78.016-62.784-114.272-0.096-18.944-0.192-36.864-7.456-44.8-13.376-14.624-40.8-17.696-62.72-17.184A381.824 381.824 0 0 0 127.104 384c0 212.064 171.936 384 384 384m0 64c-247.04 0-448-200.96-448-448s200.96-448 448-448 448 200.96 448 448-200.96 448-448 448"  horiz-adv-x="1024" />

    
    <glyph glyph-name="icon-test14" unicode="&#58967;" d="M736 704.64c-47.584 0-90.944-17.6-124.48-46.272l-0.16 0.192-2.144-2.208-19.232-19.2L512 559.136l-77.984 78.016-19.232 19.2-2.144 2.208-0.16-0.192A190.944 190.944 0 0 1 288 704.672a192 192 0 0 1-192-192c0-58.208 25.984-110.208 66.848-145.408L512 18.08l349.152 349.184A191.488 191.488 0 0 1 928 512.64a192 192 0 0 1-192 192"  horiz-adv-x="1024" />

    


  </font>
</defs>
</svg>
